<svg xmlns="http://www.w3.org/2000/svg" xmlns:xlink="http://www.w3.org/1999/xlink" width="500" zoomAndPan="magnify" viewBox="0 0 375 74.999997" height="100" preserveAspectRatio="xMidYMid meet" version="1.0"><defs><g/></defs><rect x="-37.5" width="450" fill="#ffffff" y="-7.5" height="89.999996" fill-opacity="1"/><rect x="-37.5" width="450" fill="#f5c40e" y="-7.5" height="89.999996" fill-opacity="1"/><g fill="#8c0342" fill-opacity="1"><g transform="translate(19.645816, 49.977304)"><g><path d="M 15.671875 0.46875 C 22.917969 0.46875 29.222656 -2.917969 29.222656 -8.847656 C 29.222656 -19.199219 9.082031 -19.058594 9.082031 -26.730469 C 9.082031 -30.492188 12.515625 -32.328125 16.660156 -32.328125 C 20.328125 -32.328125 23.8125 -30.117188 25.882812 -27.105469 L 28.753906 -29.457031 C 25.550781 -32.046875 21.976562 -33.410156 16.421875 -33.410156 C 10.070312 -33.410156 3.671875 -30.070312 3.671875 -24.328125 C 3.671875 -14.070312 23.433594 -13.882812 23.433594 -6.398438 C 23.433594 -2.730469 20.46875 -0.328125 15.480469 -0.613281 C 11.527344 -0.753906 7.71875 -3.246094 5.648438 -6.210938 L 2.683594 -3.8125 C 5.882812 -1.269531 9.929688 0.46875 15.671875 0.46875 Z M 15.671875 0.46875 "/></g></g></g><g fill="#8c0342" fill-opacity="1"><g transform="translate(52.067179, 49.977304)"><g><path d="M 16.847656 0.46875 C 24.988281 0.46875 30.917969 -4.28125 30.917969 -11.765625 C 30.917969 -19.246094 24.988281 -24 16.847656 -24 C 8.613281 -24 2.730469 -19.246094 2.730469 -11.765625 C 2.730469 -4.28125 8.613281 0.46875 16.847656 0.46875 Z M 16.847656 -0.46875 C 11.90625 -0.46875 8.941406 -5.601562 8.941406 -11.765625 C 8.941406 -17.882812 11.90625 -23.011719 16.847656 -23.011719 C 21.742188 -23.011719 24.753906 -17.882812 24.753906 -11.765625 C 24.753906 -5.601562 21.742188 -0.46875 16.847656 -0.46875 Z M 16.847656 -0.46875 "/></g></g></g><g fill="#8c0342" fill-opacity="1"><g transform="translate(85.711992, 49.977304)"><g><path d="M 9.554688 0 L 9.554688 -17.410156 C 10.683594 -20.46875 13.695312 -22.492188 16.140625 -22.304688 C 19.386719 -22.070312 19.527344 -19.011719 19.527344 -14.683594 L 19.527344 0 L 25.695312 0 L 25.695312 -14.164062 C 25.695312 -15.339844 25.648438 -16.375 25.601562 -17.316406 C 26.730469 -20.375 29.835938 -22.492188 32.28125 -22.304688 C 35.527344 -22.070312 35.671875 -19.011719 35.671875 -14.683594 C 35.671875 -2.542969 35.339844 -0.613281 37.363281 0 L 43.527344 0 L 43.527344 -0.421875 C 41.503906 -1.222656 41.835938 -3.433594 41.835938 -15.71875 C 41.835938 -22.257812 39.199219 -24.09375 34.304688 -24 C 31.105469 -24 27.859375 -22.730469 25.316406 -19.578125 C 24.421875 -23.058594 21.882812 -24.09375 18.164062 -24 C 14.824219 -23.953125 11.433594 -22.636719 8.894531 -19.152344 L 8.894531 -23.527344 L 2.492188 -23.527344 C 2.492188 -22.304688 3.386719 -23.292969 3.386719 -20.1875 L 3.386719 0 Z M 9.554688 0 "/></g></g></g><g fill="#8c0342" fill-opacity="1"><g transform="translate(130.932498, 49.977304)"><g><path d="M 9.554688 0 L 9.554688 -17.410156 C 10.683594 -20.46875 13.695312 -22.492188 16.140625 -22.304688 C 19.386719 -22.070312 19.527344 -19.011719 19.527344 -14.683594 L 19.527344 0 L 25.695312 0 L 25.695312 -14.164062 C 25.695312 -15.339844 25.648438 -16.375 25.601562 -17.316406 C 26.730469 -20.375 29.835938 -22.492188 32.28125 -22.304688 C 35.527344 -22.070312 35.671875 -19.011719 35.671875 -14.683594 C 35.671875 -2.542969 35.339844 -0.613281 37.363281 0 L 43.527344 0 L 43.527344 -0.421875 C 41.503906 -1.222656 41.835938 -3.433594 41.835938 -15.71875 C 41.835938 -22.257812 39.199219 -24.09375 34.304688 -24 C 31.105469 -24 27.859375 -22.730469 25.316406 -19.578125 C 24.421875 -23.058594 21.882812 -24.09375 18.164062 -24 C 14.824219 -23.953125 11.433594 -22.636719 8.894531 -19.152344 L 8.894531 -23.527344 L 2.492188 -23.527344 C 2.492188 -22.304688 3.386719 -23.292969 3.386719 -20.1875 L 3.386719 0 Z M 9.554688 0 "/></g></g></g><g fill="#8c0342" fill-opacity="1"><g transform="translate(176.153004, 49.977304)"><g><path d="M 16.515625 0.46875 C 21.410156 0.660156 25.929688 -0.894531 28.046875 -3.71875 L 25.035156 -5.175781 C 23.527344 -2.871094 21.175781 -0.46875 17.695312 -0.421875 C 12.1875 -0.421875 9.035156 -5.410156 8.941406 -11.433594 L 29.128906 -11.433594 C 29.175781 -19.339844 23.8125 -24.140625 16.09375 -24 C 9.175781 -23.859375 2.730469 -19.90625 2.730469 -11.765625 C 2.730469 -4.09375 8.894531 0.234375 16.515625 0.46875 Z M 8.941406 -12.566406 C 9.175781 -17.789062 11.527344 -22.824219 16.421875 -23.105469 C 21.316406 -23.386719 23.765625 -19.199219 23.765625 -12.566406 Z M 8.941406 -12.566406 "/></g></g></g><g fill="#8c0342" fill-opacity="1"><g transform="translate(208.009703, 49.977304)"><g><path d="M 9.554688 0 L 9.554688 -17.503906 C 10.210938 -19.433594 12.613281 -22.070312 14.636719 -22.117188 L 14.964844 -22.117188 C 14.824219 -21.742188 14.683594 -21.222656 14.683594 -20.707031 C 14.683594 -18.871094 16.140625 -17.410156 17.976562 -17.410156 C 19.8125 -17.410156 21.269531 -18.871094 21.269531 -20.707031 C 21.269531 -22.730469 19.671875 -24.046875 17.503906 -24.09375 C 14.917969 -24.140625 11.152344 -22.492188 8.894531 -19.199219 L 8.894531 -23.527344 L 2.492188 -23.527344 C 2.492188 -22.304688 3.386719 -23.292969 3.386719 -20.1875 L 3.386719 0 Z M 9.554688 0 "/></g></g></g><g fill="#8c0342" fill-opacity="1"><g transform="translate(229.93766, 49.977304)"><g/></g></g><g fill="#8c0342" fill-opacity="1"><g transform="translate(244.430814, 49.977304)"><g><path d="M 24.375 0 L 24.375 -4.09375 L 8.707031 -4.09375 C 15.71875 -9.175781 24.1875 -16.234375 24.1875 -23.625 C 24.1875 -30.164062 18.589844 -33.457031 13.082031 -33.457031 C 7.71875 -33.457031 2.445312 -30.351562 2.492188 -24.09375 L 4.421875 -24.09375 C 4.421875 -28.894531 7.765625 -31.433594 11.152344 -31.433594 C 14.589844 -31.433594 17.929688 -28.894531 17.929688 -23.339844 C 17.929688 -15.246094 11.433594 -8.09375 2.730469 -1.269531 L 2.730469 0 Z M 24.375 0 "/></g></g></g><g fill="#8c0342" fill-opacity="1"><g transform="translate(269.934998, 49.977304)"><g><path d="M 17.363281 0.46875 C 25.929688 0.46875 32.28125 -5.882812 32.28125 -16.515625 C 32.28125 -27.058594 25.929688 -33.410156 17.363281 -33.410156 C 8.800781 -33.410156 2.445312 -27.058594 2.445312 -16.515625 C 2.445312 -5.929688 8.800781 0.46875 17.363281 0.46875 Z M 17.503906 -1.175781 C 12.941406 -1.175781 8.894531 -7.152344 8.894531 -16.515625 C 8.894531 -25.882812 12.941406 -31.765625 17.503906 -31.765625 C 22.070312 -31.765625 26.117188 -25.835938 26.117188 -16.515625 C 26.117188 -7.152344 22.070312 -1.175781 17.503906 -1.175781 Z M 17.503906 -1.175781 "/></g></g></g><g fill="#8c0342" fill-opacity="1"><g transform="translate(303.344536, 49.977304)"><g><path d="M 24.375 0 L 24.375 -4.09375 L 8.707031 -4.09375 C 15.71875 -9.175781 24.1875 -16.234375 24.1875 -23.625 C 24.1875 -30.164062 18.589844 -33.457031 13.082031 -33.457031 C 7.71875 -33.457031 2.445312 -30.351562 2.492188 -24.09375 L 4.421875 -24.09375 C 4.421875 -28.894531 7.765625 -31.433594 11.152344 -31.433594 C 14.589844 -31.433594 17.929688 -28.894531 17.929688 -23.339844 C 17.929688 -15.246094 11.433594 -8.09375 2.730469 -1.269531 L 2.730469 0 Z M 24.375 0 "/></g></g></g><g fill="#8c0342" fill-opacity="1"><g transform="translate(328.84872, 49.977304)"><g><path d="M 22.445312 0 L 22.445312 -33.410156 L 18.730469 -33.410156 L 2.445312 -9.410156 L 16.140625 -9.410156 L 16.140625 0 Z M 16.140625 -26.871094 L 16.140625 -10.964844 L 5.316406 -10.964844 Z M 16.140625 -26.871094 "/></g></g></g></svg>