<?xml version="1.0" encoding="utf-8"?>
<!-- Generator: Adobe Illustrator 26.1.0, SVG Export Plug-In . SVG Version: 6.00 Build 0)  -->
<svg version="1.1" id="Calque_1" xmlns="http://www.w3.org/2000/svg" xmlns:xlink="http://www.w3.org/1999/xlink" x="0px" y="0px"
	 viewBox="0 0 564.1 723" style="enable-background:new 0 0 564.1 723;" xml:space="preserve">
<style type="text/css">
	.st0{fill:#FFFFFF;}
	.st1{fill:none;stroke:#000000;stroke-width:2;stroke-miterlimit:10;}
	.st2{fill:none;stroke:#000000;stroke-width:0.5;stroke-miterlimit:10;}
	.st3{fill:#FFFFFF;stroke:#000000;stroke-width:2;stroke-miterlimit:10;}
	.st4{fill:none;stroke:#000000;stroke-miterlimit:10;}
	.st5{fill:#08090A;}
	.st6{fill:none;stroke:#08090A;stroke-miterlimit:10;}
</style>
<rect class="st0" width="564.1" height="723"/>
<g>
	<path d="M165.7,635.7C78.8,592.6,23.9,501.2,29.3,404c5.2-104.1,78.5-193.3,177.3-224c37.5-11.5,77.7-14.4,116.4-8.2
		c0,0,9.7,1.7,9.7,1.7c3.4,0.8,11.1,2.4,14.4,3.3c2.4,0.6,7.1,2,9.5,2.6c3.4,1.1,8.3,2.7,11.7,3.8c1.5,0.5,9.8,3.8,11.5,4.4
		c1.7,0.7,9.7,4.3,11.2,5c1.4,0.7,5.1,2.6,6.6,3.3c4.8,2.3,10.5,5.6,15.1,8.2c1.4,0.9,8.8,5.6,10.4,6.5
		c41,27.2,73.9,66.5,92.6,112.1c20.6,49.2,23.8,105.2,10,156.6c-1,3.4-2.5,8.3-3.5,11.8c-1.2,3.6-2.9,7.9-4.1,11.6
		c-1.1,3.1-3.6,8.5-4.7,11.3c-13.3,29.5-32.8,58-56.6,79.2c26.6-26.1,47.7-58.3,60.3-93.5c0.9-2.9,2.3-6.4,3.2-9.2
		c1-3.4,2.4-8.3,3.4-11.7c0,0,0.6-2.4,0.6-2.4l2.2-9.5l1.7-9.6c0.9-4.6,1.4-9.8,2-14.5c6.5-61.9-10.9-124.1-48.7-173.5
		c-16.7-21.8-37.2-40.9-60-56.3c-1.5-1-8.9-5.6-10.3-6.5c-3-1.7-7.5-4.3-10.6-6c-3.1-1.6-7.7-3.9-10.8-5.5
		c-1.5-0.7-9.5-4.2-11.1-4.9c-1.6-0.7-9.8-3.8-11.3-4.4c-3.3-1.1-8.2-2.8-11.5-3.9c-4.3-1.2-9.7-2.9-14.1-3.9
		C216.5,147,86.4,214.4,44.5,337.4c-12.5,36.8-16,76.7-10.3,115.2C46,532.1,96.1,598,165.7,635.7L165.7,635.7z"/>
</g>
<g>
	<line class="st0" x1="287.5" y1="31.8" x2="287.5" y2="151"/>
	<path d="M287.7,31.8c1,9.9,1.3,19.8,1.1,29.8c-0.2,5-0.7,9.9-0.8,14.9c-0.2,9.9,0.8,19.9,0.9,29.8c0.4,14.9,0.1,29.8-1.3,44.7
		c0,0-0.3,0-0.3,0c-1.4-14.9-1.7-29.8-1.3-44.7c0.1-9.9,1.2-19.9,0.9-29.8c-0.4-9.9-1.2-19.8-0.7-29.8c0.2-5,0.4-9.9,1-14.9H287.7
		L287.7,31.8z"/>
</g>
<g>
	<circle class="st0" cx="287.5" cy="160.3" r="9.2"/>
	<path d="M296.9,160.3c0.2,9.7-9.5,14.2-16.3,6.9c-6.4-6.7-2.7-17.5,6.9-17.7C293.5,149.4,297.1,154.8,296.9,160.3L296.9,160.3z
		 M296.6,160.3c-0.1-6.9-9.8-10-14.6-5.5c-4.4,3.8-3.9,11.7,2.3,13.3C289.4,169.2,296.5,166.2,296.6,160.3L296.6,160.3z"/>
</g>
<g>
	<path d="M301,275.5c0.4,7,1.3,24.4,1.6,31.2c0.7,10.6-3.4,20.9-8.8,29.8c-3.6,6-7.7,11.6-12,17.1c-3,2.8-6.9,4-10.9,4.4
		c-7.7,0.3-15.9-1.3-21.7-6.5c-2.9-2.4-5.7-4.9-8.4-7.7c-1.2-1.3-2.4-2.7-3-4.3c-1.7-5.7-2.9-11.4-4.1-17.2
		c-0.5-2.8-1.1-5.6-1.2-8.5c0.3-4.6,0.3-9.4,0.4-14.1c0,0,0.2,0,0.2,0c0.2,3.8,0.4,7.5,0.5,11.3c-0.3,3.7,0.7,7.4,1.6,11
		c1.4,5.6,2.7,11.4,4.5,16.9c0.6,1.4,1.7,2.5,2.7,3.6c3.1,3.3,6.7,6.4,10.4,9.2c5.2,3.6,11.9,4.8,18.1,4.6c3.4-0.1,7.5-1.6,9.8-3.6
		c6.4-8,12.8-16.4,17.1-25.8c2.6-6.3,4.6-13.1,4.2-20c0,0-0.3-10.4-0.3-10.4l-0.7-20.8L301,275.5L301,275.5z"/>
</g>
<g>
	<path d="M270.9,258.2c6.1,3,12.4,6,18.8,8.1c1.6,0.5,3.3,1,4.9,1.1c0.8,0,1.9-0.1,2.7,0.2c2.6,1.1,4,3.7,5.3,6
		c0.8,1.6,1.5,3.3,2.1,5l0,0.2c-1,8-1,16.3-0.2,24.3c0.9,7.8,2.6,16.6,9.4,21.4c0,0-0.1,0.2-0.1,0.2c-14.1-7.5-12.5-32.5-10.6-46.1
		c0,0,0,0.3,0,0.3c-0.5-1.6-1.1-3.2-1.8-4.7c-1.4-2.8-3.2-6.3-6.8-5.8c-5.2-0.7-9.9-3.2-14.6-5.4c-3.1-1.5-6.1-3.1-9.2-4.7
		L270.9,258.2L270.9,258.2z"/>
</g>
<g>
	<path d="M270.9,259.7c-2.6,4.6-5.6,9.6-10.6,11.9c-1.4,0.8-2.1,2.5-2.9,4c-1.9,3.7-3.9,7.8-6.4,11.2c-7.1,10.3-19,13.8-30.9,11.3
		c0,0,0-0.2,0-0.2c1.4-0.1,2.8,0,4.2-0.1c9.7-0.3,19.3-4.1,25.4-12c2.5-3.1,4.7-7.2,6.7-10.8c0.7-1.2,1.4-2.5,2.5-3.6
		c1.1-0.9,2.6-1.2,3.7-2.2c3.4-2.5,5.9-6.1,8.1-9.7C270.7,259.7,270.9,259.7,270.9,259.7L270.9,259.7z"/>
</g>
<g>
	<path d="M227.3,300.4c-2.5,4.8-7.4,11.8-13.6,10.6c0,0,0-0.2,0-0.2c2.7-1.4,4.9-2.7,7.4-4.3c2.3-1.8,4.3-3.9,6.1-6.2
		C227.1,300.3,227.3,300.4,227.3,300.4L227.3,300.4z"/>
</g>
<g>
	<path d="M244.6,361.1c0-2.2,0-4.3,0.1-6.5c-0.6-3.6-2-6.9-2.2-10.6c0,0,0.1,0,0.1,0c0.7,1.3,1.2,2.7,1.6,4.1
		c0.6,2.1,0.5,4.4,0.8,6.5C245.5,356.8,245.8,359.1,244.6,361.1C244.7,361.2,244.6,361.1,244.6,361.1L244.6,361.1z"/>
</g>
<g>
	<path d="M288,344.1c-0.7,2.2-0.9,4.4-0.9,6.6c0.7,3.8,2.9,7,3.8,10.8c0,0-0.1,0-0.1,0c-2.6-3-3.6-6.9-4-10.8
		C286.2,348.5,286.2,345.8,288,344.1C288,344,288,344.1,288,344.1L288,344.1z"/>
</g>
<path class="st1" d="M194.4,365.7"/>
<path class="st1" d="M427.1,527c0,0,4.9,1.5,0,4.9c-4.9,3.4-6.4,5.2-6.4,5.2"/>
<g>
	<path d="M268.9,221.2c6.1-1.7,12.8-1.2,18.5,1.7c4.3,2.4,7.8,6,11,9.7c7.3,8.5,13.8,17.7,18.8,27.8c1.1,2.2,2.1,5.6,2.9,7.9
		c0,0,2.6,7.9,2.6,7.9c1.3,3.9,3.9,11.9,5.2,15.9c1.7,5.3,3.4,10.6,5.3,15.8c1.6,4.8,7.7,8.7,12.7,8.3c0,0,0.1,0.2,0.1,0.2
		c-4.2,0.8-8.6-1.4-11.7-4.3c-3-3.2-3.8-7.6-5.5-11.5c-1.4-3.9-4.2-11.8-5.5-15.8c-1.9-5.8-4.5-14.2-6.2-20
		c-2.2-6.5-6-12.4-9.7-18.2c-5.5-7.9-11.1-16.1-18.8-22.1c-5.7-3.9-13.1-4.9-19.8-3.2C268.9,221.4,268.9,221.2,268.9,221.2
		L268.9,221.2z"/>
</g>
<g>
	<path d="M320.8,288.9c4,5.8,6.9,13.6,4,20.4c-2.2,4.2-5.4,8.2-6.9,12.7c-0.4,1.5-0.5,3.2,0,4.8l-0.2,0.1
		c-3.1-4.8,0.3-10.7,3.1-14.8c0.8-1.1,2.2-2.8,2.7-4.1c1.4-3,1.4-6.4,0.7-9.6c-0.7-3.3-1.9-6.5-3.7-9.4L320.8,288.9L320.8,288.9z"/>
</g>
<g>
	<path d="M227.3,308.7c0.7,5.7,1.8,11.5,3.7,16.9c0.6,1.8,1.1,3.5,2.3,5l-0.1,0.2c-4-1.6-5-6.5-5.5-10.3c-0.6-3.9-0.8-7.8-0.7-11.7
		L227.3,308.7L227.3,308.7z"/>
</g>
<g>
	<path d="M264.6,220.5c-9.6-1.1-19.6,3.1-26,10.3c-6.6,7.2-11.6,15.6-16.9,23.8c-3.5,5.5-7,11-10.3,16.6l-0.2-0.1c1.1-3.1,2.6-6,4-9
		c1.5-2.9,3.1-5.8,4.7-8.6c3.3-5.6,7.1-11,11.2-16.2c4.1-5.2,8.4-10.4,14.3-13.5c5.8-3.1,12.6-4.6,19.1-3.6
		C264.7,220.3,264.6,220.5,264.6,220.5L264.6,220.5z"/>
</g>
<g>
	<path d="M245.5,250.5c-12.6,8-25.2,16.3-36.5,26c-2,1.8-4,3.8-5.7,5.9c-3.9,5.8-5,13.5-10.3,18.4c-4,3.8-10,3.8-15.1,2.6
		c0,0,0-0.2,0-0.2c1.9,0.1,3.7,0.2,5.6,0c2.2-0.2,4.4-0.8,6.4-2c5.9-4,6.8-11.5,10.4-17.5c0.6-1.2,1.6-2.6,2.5-3.6
		c6.9-7.2,15.3-12.6,23.5-18.1c6.3-4.1,12.7-8,19.2-11.7L245.5,250.5L245.5,250.5z"/>
</g>
<g>
	<path d="M209,300.4c-1.6,2.7-5,3.7-7.8,4.7c-2.9,1-6,1.4-9.1,0.6c0,0,0-0.2,0-0.2c0.7-0.4,1.5-0.6,2.2-0.8
		c3.5-1.1,7.4-0.9,10.8-2.2c1.4-0.5,2.8-1.1,3.7-2.2L209,300.4L209,300.4z"/>
</g>
<g>
	<path d="M270.9,224.9c2.6,4.1,2.6,9.4,0.9,13.9c-1.3,3.2-2,6.3-1.6,9.6c0.1,1.2,0.6,2.2,0.7,3.4c0,0-0.2,0-0.2,0
		c-0.7-0.9-1.5-1.9-1.9-3.1c-1.5-3.5-0.3-7.5,1.5-10.7c2-4,2.3-9,0.4-13.2C270.7,225,270.9,224.9,270.9,224.9L270.9,224.9z"/>
</g>
<g>
	<path d="M260.1,300.4c-3.5,0.5-7.1,0.8-10.5,0c-1.1-0.4-2.2-1-3.1-2l0.1-0.2c2.4,0,4.4,0.4,6.7,1.1c2.2,0.4,4.5,0.8,6.8,1
		L260.1,300.4L260.1,300.4z"/>
</g>
<g>
	<path d="M294.4,297.5c-1.1,1.2-2.4,2-3.9,2.7c-0.7,0.3-1.4,0.8-2.2,0.8c-0.8,0-1.6-0.1-2.4-0.5l0-0.2c0.3-0.3,0.7-0.5,1-0.7
		c1.6-1,3.5-0.7,5.3-1.3c0.7-0.2,1.4-0.5,2.1-0.8L294.4,297.5L294.4,297.5z"/>
</g>
<g>
	<path d="M301.4,292.7c-6.7-1.3-13.4-1.3-20.2-1.8c0,0-0.1-0.2-0.1-0.2c3.1-1.9,6.9-1.6,10.3-0.9c3.4,0.6,6.7,1.5,10,2.7
		C301.5,292.5,301.4,292.7,301.4,292.7L301.4,292.7z"/>
</g>
<g>
	<path d="M260.6,291.1l-7.3,0.8c-2.5,0.5-4.8,0.5-7.3,0.2c0,0-0.1-0.2-0.1-0.2c2-1.8,4.8-1.8,7.3-1.6c2.5,0.1,4.9,0.3,7.4,0.6
		C260.6,290.9,260.6,291.1,260.6,291.1L260.6,291.1z"/>
</g>
<g>
	<path d="M278.1,314.6c0.6,2.1,1,4.2,0.7,6.4c-0.1,1.1-0.3,2.4-1.4,3.3c-0.9,0.9-2.5,1.1-3.6,0.5c0,0,0-0.2,0-0.2
		c2.8-1.3,3.6-4,3.9-6.9c0.1-1,0.1-2.1,0.1-3.1L278.1,314.6L278.1,314.6z"/>
</g>
<path class="st2" d="M291.3,362.3"/>
<path class="st2" d="M291.3,362.3"/>
<g>
	<g>
		<path d="M331.7,665.9c-9.6,2.9-19.5,5.1-29.4,6.6c-7.5,1.3-15,2.2-22.6,1.5c-2.5-0.2-5-0.5-7.5-1.1v-0.4
			c9.8-2.2,19.8-2.6,29.8-3.1c9.9-0.8,19.8-2.1,29.7-3.9C331.6,665.5,331.7,665.9,331.7,665.9L331.7,665.9z"/>
	</g>
	<g>
		<path d="M176.7,656.6c-4.6,0.5-8.9,1.9-13.3,3.3c-2,0.6-8,2.2-9.9,2.7c-1.7,0.6-2.6-0.5-2.4-2.3c0.5-3.5,2.1-6.6,3.5-9.8
			c1.5-3.3,4.3-5.8,7.6-7.1c2.1-0.9,4.2-1.7,6.2-2.8c2-1.1,3.7-2.8,5.8-3.7c6.6-2.7,14.2-2.1,20.6,0.8c2,1.1,3.9,2.2,6.1,2.8
			c6.5,1.9,13.3,2.6,20.1,3.6c3.6,0.4,15.1,2.1,18.6,2.3c15.2,0.4,29.6-7.1,42.5-14.6c0,0,0.8-0.4,0.8-0.4s0.9-0.5,0.9-0.5
			c0,0,0.4-0.2,0.7-0.2c0.9-0.1,1.7,0.5,2.3,1c3.6,3.2,6.2,7,9.2,10.7c5.9,7.8,11.5,15.9,17,24c-5.5,3.2-11.9,4.2-18,5
			c-5.2,0.5-10.4,1.1-14.9,3.8c-3,1.7-5.5,4.1-7.3,7c-4.5,4.5-10.6,7.2-16.7,8.6c-12.1,2.8-24.3-0.3-36.1-3
			c-4.9-1.3-12.1-3.4-17.1-3.7c-2.9-0.2-5.8,0-8.8,0c-9-0.1-18-1.2-26.8-2.9c-2.9-0.6-5.9-1.3-8.8-2.2c-2.5-0.9-5.5-1.7-7.2-3.9
			c-0.3-0.3-0.4-1-0.5-1.3c-0.3-1.2-1.2-2.3-2.4-3.2c-2.6-2-6.2-3.9-2.7-7.4c0.9-1,1.7-2,2.9-2.8c0.1,0,0.2-0.1,0.5,0
			c0.2,0.1,0.2,0.3,0.1,0.5c0,0-0.4-0.1-0.4-0.1c0-0.1,0-0.1,0,0c-0.9,0.7-1.8,1.9-2.6,2.9c-0.9,1-1.6,2.3-0.6,3.4
			c2,2,5.6,3,6.5,6.3c0.1,0.4,0.1,0.5,0.3,0.8c1.7,1.7,4.3,2.2,6.5,2.9c2.8,0.8,5.7,1.3,8.6,1.8c8.7,1.4,17.6,2.1,26.4,2
			c2.8-0.1,6-0.4,9-0.2c5.4,0.2,12.5,2.2,17.8,3.4c5.7,1.3,11.6,2.4,17.3,3.2c9.8,1.4,20.2,0.1,28.5-5.4c1.1-0.7,2.2-1.6,3.1-2.5
			c0,0-0.3,0.4-0.3,0.4c2.1-3.5,5.1-6.2,8.6-8.1c5-3,10.9-3.6,16.4-4.1c4.8-0.6,9.6-1.3,14.1-3c0.4-0.1,0.8-0.3,1-0.5
			c0,0-0.6,2.4-0.6,2.4c-6.9-10.4-13.8-20.9-21.8-30.5c-0.9-1-1.8-2-2.8-2.6c0,0,0.1,0,0.2,0c0.1,0,0.4-0.1,0.3-0.1
			c-0.3,0.2-1.1,0.5-1.4,0.7c-13.4,7.6-28.2,15.1-44.1,14.4c-3.6-0.2-15-2.1-18.8-2.6c-6.8-1-13.7-1.9-20.3-3.9
			c-2.2-0.6-4.3-1.8-6.3-3c-5.8-2.8-13.2-3.5-19.3-1.1c-2.1,0.8-3.7,2.5-5.8,3.6c-4,2.2-8.7,2.9-11.7,6.5c-1.4,1.7-2.3,3.8-3.3,5.8
			c-0.9,2.1-1.8,4.2-2.1,6.3c-0.1,0.5,0,1.1,0.2,1.4c0.2,0.3,0.6,0.2,1.2,0.1l3.3-0.9c4-1,9.4-2.4,13.2-3.6c2.2-0.5,4.5-0.8,6.8-1.2
			C176.6,656.2,176.7,656.6,176.7,656.6L176.7,656.6z"/>
	</g>
	<g>
		<path d="M407.2,523.9c4.7-2.6,9.5-5.1,14.4-7.4c7.3-3.2,14.9-7.4,23.1-7c8.2,0.3,16.2,2.5,23.8,5.5c14.9,11.1,19.2,28.9,11.2,45.6
			c-1,2.1-3.8,8.2-4.8,10.4c-1.9,3.8-3.2,8-5.9,11.4c-1.1,1.2-2.8,1-3.9,1.6c-1.2,0.5-2.4,1.7-3.4,2.6
			c-13.3,12.9-25.2,27.3-39.7,38.9c-4,3.3-8.7,5.9-13.4,8.2c-9.2,4.6-18.6,8.7-28,12.6c-19.1,7.6-38,15.5-58.3,19.5
			c0,0,0.7-0.4,0.7-0.4c-2.3,3-4.7,5.8-7.7,8.1c-0.8,0.6-1.7,1.1-2.6,1.4c-2.9,0.6-5.7-0.5-8.4-1.3c-2.3-0.8-4.6-1.7-6.8-2.7
			c0,0,0.2-0.4,0.2-0.4c4.4,1.5,9.2,3.3,13.9,3.2c2.1-0.4,3.9-2.4,5.4-3.9c1.7-1.8,3.3-3.9,4.7-5.9c14.9-3.4,29.2-9.6,43.5-15.3
			c15.2-6.3,30.6-12.8,45.3-20.1c7.9-3.8,14.4-9.8,20.9-15.7c9.3-8.6,18-18,27.2-26.9c2-1.8,4.1-4,6.7-4.8c0.7-0.2,1.6-0.4,1.8-0.4
			c1.2-0.9,1.7-2.5,2.5-3.9c2.1-4,4.6-9.7,6.6-13.8c0.8-1.9,2.4-4.9,3.1-6.9c6.1-14.3,0.9-30.5-11.4-39.8c-6.6-2.6-15.2-5.4-23-5.7
			c-8.1-0.5-15.5,3.4-22.8,6.5c-4.9,2.2-9.7,4.6-14.5,7.1C407.4,524.3,407.2,523.9,407.2,523.9L407.2,523.9z"/>
	</g>
	<g>
		<path d="M368.1,563.7c-12.2,10.6-30.3,25.9-42.9,36.5c-9,7.6-17.7,15.4-27.3,22.3c-3.5,2.4-7.2,4.8-11.5,5.7c0,0-0.9,0.1-0.9,0.1
			c-2.4,0.1-4.5,1.6-5.9,3.8c0,0-0.4-0.1-0.4-0.1c0.7-2.3,2.5-4.4,5.1-5.3c2.2-0.5,4.2-1.5,6.1-2.8c3.3-2.1,7.7-6.1,10.7-8.7
			c7.1-6.1,14.7-11.6,22.1-17.4c13.1-10.1,31.7-24.5,44.7-34.4C367.8,563.4,368.1,563.7,368.1,563.7L368.1,563.7z"/>
	</g>
	<g>
		<path d="M240.8,568.4c14.4,7.1,28.7,14.6,41.8,23.9c5.2,3.7,9.9,8.1,14.6,12.4c2.4,2.1,4.6,4.4,7.3,6c0,0-0.1,0.4-0.1,0.4
			c-1.7-0.2-3.2-1-4.7-1.7c-10-5.3-18.1-13.1-27-19.8c-10.4-7.4-21.3-14.1-32.1-20.8C240.6,568.8,240.8,568.4,240.8,568.4
			L240.8,568.4z"/>
	</g>
	<g>
		<path d="M146,592.1c7.3,9.8,15.5,19,24.7,27c6.9,5.8,14.4,11,22.1,15.6c2.6,1.5,5.3,2.8,8.2,4.1c0,0-0.1,0.4-0.1,0.4
			c-12.7-0.9-23.8-8.9-32.4-17.7c-8.8-8.7-16.5-18.5-22.8-29.2C145.7,592.4,146,592.1,146,592.1L146,592.1z"/>
	</g>
	<g>
		<path d="M207.3,541.6c-4.3-4.4-8.7-8.9-13.8-12.5c-1-0.7-2.1-1.4-3.3-1.6c-0.7,0-1.6,0-2.3-0.1c-6.3-0.6-12.3-2.1-18.5-2.8
			c-1.3-0.1-2.7-0.3-3.9-0.1c-2.8,0.5-5.5-0.2-8.2,0.4c-9.9,2.1-19.1,7.4-25.4,15.4c-2.5,3.1-4.8,6.6-6.4,10.2
			c-0.4,2.6-1.6,8.4-1.7,12.1c-0.1,3-0.3,5.9,1.1,8.6c4,8.7,8.2,17.2,12.6,25.7c3.8,7.5,8.1,14.9,13.3,21.4
			c20.1,26.9,20.3,27.7-2.2,1.8c-5.9-6.3-10.5-13.7-14.7-21.3c-4.8-8.7-9.1-17.7-12.9-26.9c-1.2-3-1-6.5-0.7-9.5
			c0.4-4.4,1.2-8.7,2.2-13c1.9-4,4.3-7.5,7.1-10.9c4.1-4.9,9.3-9.1,15.1-11.7c5.7-2.6,12.1-4.9,18.5-4c0.6,0,1.1,0,1.7-0.1
			c3.7-0.3,7.2,0.8,10.8,1.4c4.6,0.8,9.1,2.1,13.7,2.4c0.5,0,1.3,0.1,1.7,0.3c3,1.3,5.3,3.6,7.6,5.7c3,2.9,5.9,5.9,8.7,9
			L207.3,541.6L207.3,541.6z"/>
	</g>
	<g>
		<path d="M416.1,629.4c4,0.7,18.5,2.5,18,7.8c-1.3,4.5-1.8,12.2-8.3,11.1c0,0-1.2-0.2-1.2-0.2l1.2-0.6c-1.3,4.8-2.8,9.5-4.3,14.2
			c-1.7,4.5-2.9,9.3-5.8,13.2c-0.5,0.5-0.8,0.8-1.7,0.9c-1.8,0.3-5,1.4-6.9,1.9c-7.3,2.1-15,3.1-22.6,2.4c-5-0.5-9.9-1.2-14.8-2.2
			c-12.2-2.4-24.2-5.4-36-9.6c-2.3-0.9-4.7-1.7-6.9-2.9l0.2-0.4c4.7,1.4,9.6,2.3,14.4,3.3c9.6,1.9,19.5,3.8,29,5.5
			c9.6,1.7,19.1,3.8,28.8,2.3c3.5-0.4,7.3-1.4,10.7-2.4c1.2-0.3,2.4-0.7,3.9-0.8c-0.2,0-0.3,0.1-0.3,0.1c0,0,0.1-0.1,0.1-0.1
			c2.6-3.5,3.9-8,5.6-12.1c1.7-4.6,3.2-9.3,4.7-14l0.3-0.9c0,0,0.9,0.3,0.9,0.3c2.9,1,4.9-0.2,5.9-3.1c0.6-1.6,1.1-3.5,1.6-5.2
			c0.4-1,0.6-1.6-0.2-2.5c-2-1.9-5-2.8-7.7-3.7c-2.8-0.8-5.7-1.5-8.6-2C416.1,629.8,416.1,629.4,416.1,629.4L416.1,629.4z"/>
	</g>
</g>
<path class="st3" d="M405.1,436.4c0,0,17.9-0.5,17.9,6.4c0,9.4-4.6,114.5-4.6,114.5s1.1,10.1-18.8,9.9s-160,6.7-160,6.7
	s-21.1,3-22.9-4.8s0-116.6,0-116.6s0.5-14,14.9-14.5C246,437.6,405.1,436.4,405.1,436.4z"/>
<g>
	<path d="M238.2,357c9,5.9,19.8,9.3,30.5,9.3c5.4,0,10.6-1.2,15.7-2.5c5.1-1.4,10.1-3.5,15-5.9l0.2,0.2c-4.1,3.7-9,6.6-14.3,8.5
		c-13.3,4.4-28.3,1.8-40.4-4.8c-2.4-1.3-4.7-2.8-6.9-4.5L238.2,357L238.2,357z"/>
</g>
<g>
	<path d="M242.8,351.5c-11.3-3.1-11.8,1.9-5.5,10c0.8,1.6-1.2,1.2-2.1,1.3c0,0-3.4,0-3.4,0c-2.4,0-7.7-0.1-10,0.2
		c-9.3,0.8-18.7,1.5-27.7,4.2c-2.8,0.5-6.1,0.4-8.5,1.9c-1.6,1.3-3,2.6-4.4,4.2c-2,2.1-3.2,5.4-1.8,8c1.6,2.1,1.2,4.4-1,5.7
		c-1.2,0.9-3.2,1.6-4.1,2.5c-0.3,0.3-0.4,0.5-0.5,0.9c-0.2,0.9,0.1,1.9,0.2,2.9c0.8,5.2-0.1,10.4-0.7,15.4
		c-0.6,4.5-1.4,8.9-2.2,13.3c-3.3,17.3-7.9,35.3-12.3,52.3c-2.1,8.7-4.8,17.3-5.8,26.1c0,0-0.3,0-0.3,0c-0.1-4.5,0.8-9,1.5-13.4
		c3.1-17.3,7.3-35.3,11.1-52.5c1.9-8.7,3.9-17.4,5.3-26.2c0.7-4.4,1.3-8.8,1.2-13.1c-0.1-1.8-0.7-3.5-0.3-5.3
		c0.3-2.1,2.8-3.2,4.3-3.9c1.5-0.9,3.5-1.4,1.8-3.5c-1.4-2.4-0.9-5.1,0.1-7.4c1.6-3.1,4.2-5.2,6.8-7.4c2.7-1.7,5.9-1.7,8.9-2.1
		c8.1-2.2,16.6-2.9,24.9-3.5c1.5-0.1,4.4-0.3,5.9-0.3c0.5,0,6.9,0.2,7.5,0.1c0.9,0,4.1,0,5,0c0,0,0,0,0,0c0,0,0,0,0,0
		c-0.1,0-0.1,0.1-0.1,0.1c-1.2-2.2-3.2-4.2-3.8-6.8c-0.8-2.8,0.3-4.9,3.3-5c2.3-0.1,4.5,0.4,6.7,1L242.8,351.5L242.8,351.5z"/>
</g>
<g>
	<path d="M287.9,354.7c5-3,13.1-7.1,18.8-3.9c1.6,1.1,2.8,3,2.7,5c-0.3,4.8-4.1,7.8-6.4,11.5c0.1-0.3-0.2-0.9-0.6-0.9
		c0,0-0.3,0-0.3,0c2.3-0.3,4.7-0.6,7-0.8c0,0,7.1-0.7,7.1-0.7c6,0.6,11.9,1.2,17.8,1.9c4,0.5,8.2,1,12.1,2c0.4,0.1,0.6,0.1,0.9,0.1
		c3.1,0.3,6.2,0.1,9.1,2c0,0,1.8,1.4,1.8,1.4c2,1.9,4.3,3.7,5.3,6.4c0.8,2,1.1,4.3,0.3,6.4c-0.2,0.7-0.8,1.3-1,1.8
		c-0.1,0.3-0.1,0.3,0.2,0.6c4.1,2.9,7.7,2.7,6.3,9.2c0,0,0-0.8,0-0.8l2.9,10c0.7,2.5,12.4,44.2,5.8,25.5
		c-4.2-11.2-8.2-23.2-11.9-34.6c0,0-0.1-0.4-0.1-0.4s0.1-0.4,0.1-0.4c0.2-0.9,0.4-2.2-0.1-2.9c-0.2-0.3-0.7-0.6-1.3-0.9
		c-3.2-1.5-6.8-3.8-4.1-7.7c1.1-1.4,0.8-3.4,0.2-5c-0.8-2.2-2.8-3.9-4.3-5.6c0,0-1.6-1.4-1.6-1.4c-0.8-0.7-2.2-1.1-3.6-1.4
		c-2.1-0.5-4.5-0.5-6.6-1.3c-9.1-2.7-18.8-3.4-28.3-3.5c-3.1,0.6-10.1,1.9-13.8,2.5c-0.5,0.1-1.1-0.1-1.5-0.4
		c-0.6-0.5-0.8-1.4-0.5-2c1.7-3.8,6-6.6,6.5-10.9c0-4.9-6.4-4.5-9.9-3.7c-3,0.6-6,1.7-9,2.9C288.1,355,287.9,354.7,287.9,354.7
		L287.9,354.7z"/>
</g>
<g>
	<path d="M201.9,443.8c1,5.8,2.4,11.6,5.4,16.7c1.7,2.9,3.3,5.8,5.7,8.5c0,0-0.1,0.3-0.1,0.3c-8-1.8-9.9-11.2-10.9-18.2
		c-0.3-2.4-0.4-4.8-0.3-7.2L201.9,443.8L201.9,443.8z"/>
</g>
<path class="st4" d="M204.1,538c10.7,3.3,11.7,3.8,11.7,7.1"/>
<g>
	<path d="M154.4,508.1c1.4,3.5,4,6.3,6.7,8.8c1.7,1.2,3.2,2.6,4.4,4.3c0.5,0.7,1.1,1.3,1.5,2.2l-0.2,0.2c-1.9-0.3-3.5-1.1-4.9-2.1
		c-1.5-1-2.5-2.5-3.6-3.9c-2.1-2.8-3.9-6-4.3-9.5C154.1,508.1,154.4,508.1,154.4,508.1L154.4,508.1z"/>
</g>
<g>
	<path d="M163.7,492.2c11.7-7.7,28.1-8.7,39.6,0c4.6,3.8,8.9,8,12.7,12.6c0,0,0.3,0.4,0.3,0.4l0.1,0.1c0,0,0,0,0,0.1
		c0.1,0.2-0.1,0.3-0.3,0.3c-0.1-0.1-0.2-0.1-0.3-0.2c0,0,0.2-0.2,0.2-0.2c0.1,0,0.1,0.1,0.2,0.1c0,0,0,0,0,0c0,0-0.2,0-0.2,0.1
		c0,0,0,0.1,0,0.2c0,0,0,0,0,0c-0.3-0.2-0.9-0.6-1.2-0.8c-3.6-2.4-7.1-5.1-10.5-7.8c-1.6-1.3-4-3.2-5.7-4.3c-10.2-7-24-5.7-34.7-0.2
		C163.9,492.4,163.7,492.2,163.7,492.2L163.7,492.2z"/>
</g>
<g>
	<path class="st5" d="M375.4,496.4c-0.4,0-0.7-0.3-0.8-0.6c-0.4-2.4,0.2-4.9,1.7-6.9c3.5-4.6,10.8-6.6,14.2-7.1
		c2.5-0.3,4.7-1.6,5.9-3.8c3.7-6.3,0.5-10.5-0.2-11.3h0c-0.3-0.3-0.2-0.8,0.1-1.1c0.3-0.3,0.8-0.2,1.1,0.1c0.8,0.9,4.5,5.8,0.4,13
		c-1.5,2.5-4.1,4.2-7.1,4.5c-3.7,0.5-10.2,2.6-13.1,6.5c-1.3,1.6-1.8,3.7-1.5,5.7C376.2,496,375.9,496.4,375.4,496.4L375.4,496.4z"
		/>
	<path class="st5" d="M375.4,502.9c-0.2,0-0.4-0.1-0.6-0.3c-1.9-2.3-0.7-5.9-0.7-6c2.6-6.3,9.4-8.3,14.8-9.9
		c1.5-0.4,2.8-0.8,4.1-1.3c2.7-1,3.8-2.7,4.3-4.4h0c0,0,0-0.1,0-0.1c0.3-1.2,0.2-2.5-0.1-3.8c-0.1-0.2,0-0.4,0.1-0.6
		c0.1-0.2,0.3-0.3,0.4-0.4c0.4-0.1,0.8,0.1,0.9,0.5c0.4,1.4,0.4,2.8,0.2,4.3c1.3,1.8,2.5,5.5-0.9,8.3c-1.4,1.1-3.5,1.6-6,2.2
		c-5.3,1.2-12,2.7-15.9,11c-0.1,0.2-0.3,0.4-0.6,0.4L375.4,502.9z M375.6,497.1c-0.3,1.1-0.4,2.2-0.2,3.3
		c4.3-7.9,11.1-9.4,16.2-10.5c2.3-0.5,4.3-1,5.4-1.9c0.8-0.6,1.3-1.4,1.5-2.4c0.2-0.9,0.1-1.9-0.3-2.8c-1,1.9-2.6,3.3-4.6,3.9
		c-1.3,0.5-2.7,0.9-4.2,1.3C384,489.7,377.9,491.5,375.6,497.1L375.6,497.1z"/>
	<path class="st5" d="M396,468.8c-0.2,0-0.4-0.1-0.5-0.2c-0.3-0.3-0.3-0.7-0.1-1c0.8-1.1,1.1-2.4,1-3.7c-0.2-2-1.3-5-5.5-8
		c-4-2.9-11.5-3.9-17.4-0.1c-0.3,0.1-0.7,0-0.9-0.3c-0.2-0.3-0.1-0.7,0.1-0.9c6.4-4.1,14.6-3,19,0.2c4.7,3.3,5.9,6.8,6.1,9.1h0
		c0.2,1.7-0.3,3.5-1.4,4.8C396.4,468.7,396.2,468.8,396,468.8L396,468.8z"/>
	<path class="st5" d="M368.7,471.7c-0.1,0-0.2,0-0.3-0.1c-1.5-0.6-4.3-2.7-3.8-6.2c0.4-2.7,3.3-6.3,4.6-7.8c0.1-0.2,0.3-0.3,0.5-0.3
		c0.2,0,0.4,0,0.6,0.2c0.2,0.1,0.2,0.3,0.3,0.5c0,0.2-0.1,0.4-0.2,0.6c-2.4,2.7-4,5.4-4.2,7c-0.1,0.8,0,1.6,0.3,2.3
		c0.3,0.7,0.9,1.3,1.5,1.7c0.3-1.3,1.6-2.4,2.8-3.3c1.7-1.4,3.3-2.7,3.1-4.9l0,0c0-0.4,0.3-0.8,0.7-0.8c0.4,0,0.8,0.3,0.8,0.7
		c0.3,3-1.9,4.8-3.6,6.2c-1.6,1.3-2.6,2.1-2.3,3.3c0.1,0.3,0,0.6-0.2,0.8C369.1,471.7,368.9,471.7,368.7,471.7L368.7,471.7z"/>
	<path class="st5" d="M372.6,484.7c-0.8-0.1-1.5-0.2-2.3-0.5l-0.6-0.2c-2.9-0.9-1.9-5.7-1.2-8.5c0.1-0.6,0.2-1.1,0.3-1.4l0,0
		c0.1-0.9-0.1-1.8-0.6-2.6c-0.1-0.2-0.2-0.4-0.1-0.6c0-0.2,0.1-0.4,0.3-0.5c0.3-0.2,0.8-0.2,1,0.2c0.7,1.1,1.1,2.4,0.9,3.7
		c-0.1,0.4-0.2,0.9-0.3,1.5c-0.4,2-1.4,6.2,0.2,6.8l0.6,0.2c1,0.3,1.8,0.6,2.2,0.4c0.4-0.2,0.9-1.1,1.2-2.7v0c0-0.2,0.2-0.4,0.3-0.5
		c0.2-0.1,0.4-0.1,0.6-0.1c0.4,0.1,0.6,0.5,0.5,0.9c-0.5,2.1-1.1,3.2-2,3.6h0C373.3,484.6,372.9,484.7,372.6,484.7L372.6,484.7z"/>
	<path class="st5" d="M374.2,484.5c-0.3,0-0.6-0.1-0.9-0.1c-0.4-0.1-0.6-0.5-0.5-0.9c0.1-0.4,0.5-0.6,0.9-0.5c1.3,0.4,2-0.8,3.1-2.9
		c0.7-1.2,1.3-2.4,2.2-3c1.8-1.1,3.7-4,3.7-5.8l0,0c0-0.4,0.3-0.8,0.8-0.8c0.4,0,0.8,0.3,0.8,0.8c0,2.6-2.3,5.9-4.4,7.1
		c-0.6,0.3-1.1,1.4-1.6,2.4C377.2,482.4,376.1,484.5,374.2,484.5L374.2,484.5z"/>
	<path class="st5" d="M386.7,484.2c-0.3,0-0.6-0.2-0.7-0.5c-0.1-0.3,0-0.6,0.3-0.8c0.2-0.2,4.7-3.8,3.4-12.6
		c-1.2-7.7-10.2-9.5-10.3-9.5c-0.3-0.1-0.6-0.3-0.6-0.7c0-0.2-0.4-3.9-5.7-4.3c-1.4-0.1-2.8-0.1-4.2,0.1c2.1,2.9,5.3,5,8.9,5.6
		c0.4,0.1,0.7,0.5,0.6,0.9c-0.1,0.4-0.5,0.7-0.9,0.6c-7.6-1.5-10.4-7-10.5-7.3c-0.1-0.2-0.1-0.4,0-0.6c0.1-0.2,0.2-0.3,0.4-0.4
		c0.1,0,1.9-0.7,5.8-0.4c5.3,0.4,6.7,3.8,7,5.1c2.1,0.5,9.8,3,11,10.6c1.4,9.7-3.8,13.8-4,14h0C387.1,484.2,386.9,484.3,386.7,484.2
		L386.7,484.2z"/>
	<path class="st5" d="M365.4,467.8c-0.1,0-0.2,0-0.3-0.1l-12.7-5.3c-0.5-0.2-0.8-0.6-0.9-1.2c-0.1-0.5,0-1.1,0.4-1.4
		c0.4-0.4,0.9-0.6,1.4-0.5l14,1.6c0.4,0,0.7,0.4,0.7,0.8c0,0.4-0.4,0.7-0.8,0.7l-14.1-1.6c-0.1,0-0.2,0-0.2,0.1c0,0.1,0,0.2,0.1,0.2
		l12.7,5.3c0.3,0.1,0.5,0.5,0.4,0.8C366.1,467.6,365.8,467.9,365.4,467.8L365.4,467.8z"/>
	<path class="st5" d="M374.9,472c-0.1,0-0.2,0-0.3-0.1c-0.1,0-0.2-0.1-0.2-0.2l-0.1-0.1l-0.1-0.1l0-0.1c0,0,0-0.1,0-0.2
		c0-0.2,0.1-0.4,0.2-0.5c0.1-0.1,0.2-0.1,0.2-0.2c0.1,0,0.3,0,0.4,0c0,0,0.1,0,0.1,0c0,0,0.1,0,0.1,0.1c0,0,0.1,0.1,0.1,0.1
		c0.1,0.1,0.1,0.2,0.2,0.2c0,0.1,0.1,0.2,0.1,0.3c0,0,0,0.1,0,0.2l0,0.1l-0.1,0.1l-0.1,0.1l-0.1,0.1l0,0c0,0-0.1,0.1-0.1,0.1
		c0,0-0.1,0-0.1,0L374.9,472z"/>
	<path class="st5" d="M381.5,486.4c-0.2,0-0.4-0.1-0.5-0.2c-2.1-2.1-1.5-4-0.9-5.7c0.6-1.3,0.7-2.7,0.4-4.1c-0.1-0.2,0-0.4,0.1-0.6
		c0.1-0.2,0.3-0.3,0.4-0.4c0.4-0.1,0.8,0.1,0.9,0.5c0.5,1.7,0.3,3.5-0.4,5c-0.6,1.6-0.9,2.7,0.5,4.1c0.3,0.3,0.3,0.8,0,1.1
		C381.9,486.3,381.7,486.4,381.5,486.4L381.5,486.4z"/>
</g>
<path class="st6" d="M389.8,549.8h-36.1c-3.3,0-5.9-2.6-5.9-5.9v-11.8c0-3.3,2.6-5.9,5.9-5.9h36.1c3.3,0,5.9,2.6,5.9,5.9v11.8
	C395.6,547.2,393,549.8,389.8,549.8z"/>
<g>
	<path d="M253,476.5l2.2-0.5l1,4.1c-0.4,0.6-1,1-1.7,1.4c-0.7,0.4-1.4,0.7-2.1,0.9c-1.1,0.3-2.1,0.3-3,0c-1-0.2-1.8-0.7-2.4-1.4
		c-0.7-0.7-1.1-1.5-1.4-2.5c-0.2-1-0.2-2,0-2.9c0.3-0.9,0.8-1.7,1.5-2.4s1.6-1.1,2.7-1.4c0.9-0.2,1.7-0.3,2.5-0.1
		c0.8,0.1,1.5,0.4,2.2,0.9l-1.2,1.8c-0.9-0.6-1.9-0.8-2.9-0.5c-0.6,0.2-1.2,0.4-1.6,0.8c-0.4,0.4-0.7,0.9-0.9,1.4
		c-0.2,0.6-0.2,1.2,0,1.8c0.2,0.6,0.4,1.2,0.8,1.6c0.4,0.4,0.9,0.7,1.5,0.9c0.6,0.2,1.2,0.2,1.8,0c0.7-0.2,1.3-0.5,1.7-0.9
		L253,476.5z"/>
	<path d="M260.6,479.7c-1-0.2-1.8-0.7-2.5-1.4c-0.7-0.7-1.1-1.5-1.4-2.5s-0.2-2,0.1-2.9c0.3-0.9,0.8-1.7,1.5-2.4
		c0.7-0.7,1.6-1.1,2.7-1.4c1.1-0.3,2.1-0.3,3,0c1,0.2,1.8,0.7,2.5,1.4c0.7,0.7,1.1,1.5,1.4,2.5c0.2,1,0.2,2-0.1,2.9
		s-0.8,1.7-1.5,2.4c-0.7,0.7-1.6,1.1-2.7,1.4C262.6,479.9,261.6,479.9,260.6,479.7z M264.6,476.8c0.4-0.4,0.7-0.9,0.9-1.4
		c0.2-0.6,0.2-1.2,0-1.8c-0.2-0.6-0.4-1.2-0.8-1.6c-0.4-0.4-0.9-0.7-1.4-0.9c-0.6-0.2-1.1-0.2-1.7,0c-0.6,0.1-1.1,0.4-1.5,0.8
		c-0.4,0.4-0.7,0.9-0.9,1.4c-0.2,0.6-0.2,1.2,0,1.8c0.2,0.6,0.4,1.2,0.8,1.6c0.4,0.4,0.9,0.7,1.4,0.9c0.6,0.2,1.1,0.2,1.7,0
		C263.7,477.5,264.2,477.2,264.6,476.8z"/>
	<path d="M272.9,476.7c-1-0.2-1.8-0.7-2.5-1.4c-0.7-0.7-1.1-1.5-1.4-2.5c-0.2-1-0.2-2,0.1-2.9c0.3-0.9,0.8-1.7,1.5-2.4
		c0.7-0.7,1.6-1.1,2.7-1.4c1.1-0.3,2.1-0.3,3,0c1,0.2,1.8,0.7,2.5,1.4c0.7,0.7,1.1,1.5,1.4,2.5c0.2,1,0.2,2-0.1,2.9
		s-0.8,1.7-1.5,2.4c-0.7,0.7-1.6,1.1-2.7,1.4C274.8,476.9,273.8,476.9,272.9,476.7z M276.9,473.8c0.4-0.4,0.7-0.9,0.9-1.4
		c0.2-0.6,0.2-1.2,0-1.8c-0.2-0.6-0.4-1.2-0.8-1.6c-0.4-0.4-0.9-0.7-1.4-0.9c-0.6-0.2-1.1-0.2-1.7,0c-0.6,0.1-1.1,0.4-1.5,0.8
		c-0.4,0.4-0.7,0.9-0.9,1.4c-0.2,0.6-0.2,1.2,0,1.8s0.4,1.2,0.8,1.6c0.4,0.4,0.9,0.7,1.4,0.9c0.6,0.2,1.1,0.2,1.7,0
		C276,474.5,276.5,474.2,276.9,473.8z"/>
	<path d="M280.7,464.5l4.6-1.1c1.1-0.3,2.1-0.3,3.1-0.1c1,0.2,1.8,0.6,2.4,1.3c0.7,0.6,1.1,1.5,1.4,2.5c0.3,1,0.2,2,0,2.8
		c-0.3,0.9-0.8,1.6-1.5,2.3c-0.7,0.6-1.7,1.1-2.8,1.4l-4.6,1.1L280.7,464.5z M287.2,471.6c1-0.3,1.8-0.7,2.2-1.5
		c0.5-0.7,0.6-1.6,0.3-2.5c-0.2-1-0.7-1.7-1.5-2.1c-0.7-0.4-1.6-0.5-2.6-0.2l-2.2,0.5l1.6,6.3L287.2,471.6z"/>
	<path d="M248.5,485.4l6.6-1.6c1.6-0.4,3-0.4,4.4-0.1c1.4,0.3,2.5,0.9,3.5,1.8c0.9,0.9,1.6,2.1,2,3.6c0.4,1.5,0.3,2.8-0.1,4.1
		c-0.4,1.3-1.1,2.3-2.2,3.2c-1.1,0.9-2.4,1.5-4,1.9l-6.6,1.6L248.5,485.4z M257.8,495.6c1.5-0.4,2.5-1,3.2-2.1
		c0.7-1,0.8-2.2,0.5-3.6c-0.3-1.4-1-2.4-2.1-3c-1.1-0.6-2.3-0.7-3.8-0.4l-3.1,0.8l2.2,9L257.8,495.6z"/>
	<path d="M277.8,490.3l-6.7,1.7l-0.5,3.4l-3.4,0.9l2.9-16.1l3.3-0.8l10.1,12.9l-3.5,0.9L277.8,490.3z M276.1,488l-3.7-5l-0.9,6.1
		L276.1,488z"/>
	<path d="M289.7,485.2l1.3,5.1l-3.4,0.8l-1.3-5.2l-7.9-8l3.6-0.9l5.5,5.5l2.3-7.4l3.3-0.8L289.7,485.2z"/>
</g>
<g>
	<path class="st5" d="M239,535.5c-0.1-1.6,0.2-3.1,0.7-4.6c0.2-0.6,0.4-1.2,0.7-1.8c0.4-1,1-1.8,1.9-2.4c1.4-1,3-1.8,4.6-2.3
		c1.4-0.4,2.7-0.3,3.9,0.2c0.6,0.2,1.1,0.4,1.7,0.7c0.6,0.2,1.1,0.5,1.5,1c0.2,0.2,0.5,0.4,0.8,0.5c1.4,0.7,2.6,1.6,3.7,2.7
		c0.8,0.8,1.5,1.7,2,2.8c1.1,2.4,0.9,4.6-0.4,6.9c-0.8,1.4-2,2.5-3.4,3.5c-1.5,1.1-3.2,2-5,2.6c-1.3,0.5-2.7,0.8-4.1,0.8
		c-1.4,0-2.7-0.3-3.9-0.8c-1.6-0.8-2.8-2-3.5-3.6c-0.7-1.6-1.1-3.2-1.2-5C239,536.3,239,535.9,239,535.5L239,535.5z M248,525.9h-0.5
		c-1.3,0-2.6,0.4-3.8,1c-1.1,0.6-1.9,1.6-2.5,2.7c-1.2,2.3-1.5,4.9-1.2,7.4c0.3,2.6,1.2,5.3,3.4,6.8c1.6,1.1,3.7,1.4,5.6,1.1
		c1.9-0.3,3.7-1.1,5.4-2.1c1.9-1,3.8-2.2,5-3.9c0.7-0.9,1.2-2.1,1.2-3.2c0-1.2-0.4-2.3-1-3.4c-1.5-2.5-4-4.4-6.8-5.4
		C251.3,526.3,249.6,525.9,248,525.9L248,525.9z"/>
	<path class="st5" d="M259.7,544.4c0.2,0,0.5,0.2,0.6,0.4c1,1,2,2,3,3c0.9,0.9,1.8,1.8,2.6,2.8c0.5,0.6,1,1.2,1.2,2
		c0,0.1,0,0.2-0.1,0.3c-0.1,0-0.2,0-0.2-0.1c-2.3-2.3-4.5-4.7-6.8-7.1c-0.2-0.3-0.7-0.8-0.5-1.1
		C259.5,544.4,259.6,544.4,259.7,544.4L259.7,544.4z"/>
	<path class="st5" d="M269,518.8v0.2c0,0.1-0.1,0.2-0.2,0.3c-2.1,2.2-4.3,4.3-6.4,6.5c-0.1,0.1-0.3,0.3-0.5,0.2
		c-0.8-0.5,4-5.1,4.5-5.6c0.7-0.7,1.3-1.3,2.1-1.8c0.1-0.1,0.3-0.1,0.4-0.1C268.9,518.7,268.9,518.7,269,518.8L269,518.8z"/>
	<path class="st5" d="M233.9,537.9h1c0.1,0,0.2,0,0.3,0.1c0,0.1,0,0.2,0,0.3c-0.1,0.1-0.2,0.1-0.3,0.1c-0.9,0.2-1.8,0.3-2.8,0.4
		c-1.9,0.2-3.8,0.4-5.6,0.7c-0.2,0-0.4,0-0.6,0c-0.2-0.1-0.4-0.4-0.3-0.6c0.1-0.1,0.2-0.1,0.3-0.1
		C228.5,538.3,231.2,538,233.9,537.9L233.9,537.9z"/>
	<path class="st5" d="M238.4,527.2c-0.1,0-0.2,0-0.3,0c-2.3-0.6-4.6-1.4-6.8-2.4c-0.5-0.2-0.6-0.8,0-0.8c0.6,0,1.3,0.5,1.9,0.7
		c1.3,0.5,2.5,0.9,3.8,1.4c0.5,0.2,1,0.3,1.5,0.5c0.1,0,0.3,0.1,0.3,0.2c0,0.1,0,0.3-0.2,0.4C238.6,527.2,238.5,527.2,238.4,527.2
		L238.4,527.2z"/>
	<path class="st5" d="M246.3,516.8v1.5c0,0.9,0,1.8-0.1,2.8c0,0.2-0.2,0.4-0.3,0.3c0,0-0.1-0.1-0.1-0.2c-0.1-0.5-0.1-1-0.1-1.5
		c0-1.3,0-2.5,0-3.8c0-0.6,0-1.2,0.1-1.8c0-0.4,0-1.2,0.2-1.5c0.1-0.1,0.3-0.2,0.4-0.1c0.1,0.1,0.1,0.2,0.1,0.3
		C246.3,514.2,246.3,515.5,246.3,516.8L246.3,516.8z"/>
	<path class="st5" d="M252.5,549.6c0,1.6-0.1,3.2-0.3,4.8c0,0.2-0.1,0.4-0.3,0.4c0,0-0.1-0.1-0.1-0.1c-0.3-0.5-0.3-1-0.3-1.5
		c0-0.9,0-1.7,0.1-2.6c0-0.8,0.1-1.5,0.1-2.2c0-0.3,0.1-1.8,0.7-0.8c0.1,0.2,0.1,0.4,0.1,0.6C252.5,548.6,252.5,549.1,252.5,549.6
		L252.5,549.6z"/>
	<path class="st5" d="M234.6,552.5c-0.2-0.1-0.1-0.4,0-0.6c0.6-0.8,1.2-1.6,1.8-2.4c0.5-0.6,0.9-1.3,1.5-1.8
		c0.2-0.2,0.7-0.7,0.9-0.8c0.4-0.1,0.6,0.2,0.3,0.5c-0.5,0.6-1,1.2-1.5,1.8C236.8,550.4,235.9,551.7,234.6,552.5L234.6,552.5z"/>
	<path class="st5" d="M270.4,538.2c-1.8,0-3.6-0.2-5.3-0.7c-0.1,0-0.3-0.1-0.4-0.2c-0.4-0.4,0.2-0.5,0.5-0.5
		c1.5,0.2,2.9,0.4,4.4,0.5c0.5,0,1,0.1,1.5,0.2c0.2,0,0.5,0.2,0.4,0.4c0,0.1-0.2,0.1-0.3,0.1C270.7,538.2,270.6,538.2,270.4,538.2
		L270.4,538.2z"/>
	<path class="st5" d="M247.9,541.1c-0.8,0-1.6-0.1-2.3-0.4c-1.2-0.6-1.9-1.7-2.5-3c-0.1-0.2-0.3-0.8,0-1c0.3-0.1,0.6,0.3,0.7,0.5
		c0.5,1,1.1,2,2.1,2.5c0.8,0.4,1.6,0.5,2.4,0.4c2.9-0.2,5.5-1.9,7.4-4c0.1-0.2,0.4-0.3,0.6-0.2c0.1,0.1,0,0.3,0,0.4
		c-0.3,0.7-0.8,1.3-1.3,1.8c-1.8,1.7-4.3,2.8-6.8,2.9C248.1,541.1,248,541.1,247.9,541.1L247.9,541.1z"/>
	<path class="st5" d="M251.9,533.2c0,0,0,0.1,0,0.1c-0.1,0.1-0.3,0.1-0.4,0c-0.1-0.1-0.2-0.2-0.3-0.3c-0.3-0.6-0.5-1.2-0.5-1.8
		c0-0.2,0.1-1.8,0.5-1.5c0.1,0,0.1,0.2,0.1,0.3c0.1,0.7,0,1.4,0.2,2c0.1,0.3,0.2,0.6,0.3,0.9C251.9,533,251.9,533.1,251.9,533.2
		L251.9,533.2z"/>
	<path class="st5" d="M246.1,530.8c0-0.2,0-0.5,0-0.7c0-0.2,0.2-1,0.6-0.6c0.1,0.1,0.1,0.2,0.1,0.4c0,0.8,0.1,1.7,0.1,2.6
		c0,0.1,0,0.2,0,0.3c0,0.1-0.1,0.1-0.2,0.1c0,0-0.1,0-0.1-0.1c-0.2-0.2-0.3-0.5-0.3-0.8C246.2,531.6,246.1,531.2,246.1,530.8
		L246.1,530.8z"/>
</g>
</svg>
