<?xml version="1.0" standalone="no"?>
<!DOCTYPE svg PUBLIC "-//W3C//DTD SVG 20010904//EN"
 "http://www.w3.org/TR/2001/REC-SVG-20010904/DTD/svg10.dtd">
<svg version="1.0" xmlns="http://www.w3.org/2000/svg"
 width="3013.000000pt" height="3013.000000pt" viewBox="0 0 3013.000000 3013.000000"
 preserveAspectRatio="xMidYMid meet">
<metadata>
Created by potrace 1.14, written by Peter Selinger 2001-2017
</metadata>
<g transform="translate(0.000000,3013.000000) scale(0.100000,-0.100000)"
fill="#000000" stroke="none">
<path d="M15276 28783 c-2 -10 -8 -58 -11 -108 -4 -49 -8 -106 -10 -125 -20
-207 -27 -909 -13 -1170 20 -349 22 -420 22 -610 -1 -113 -4 -266 -8 -340 -8
-139 -11 -206 -23 -465 -10 -205 -10 -1284 0 -1475 13 -244 17 -312 21 -360 3
-25 8 -86 11 -136 l7 -91 -44 -6 c-75 -10 -100 -17 -149 -45 -199 -111 -269
-353 -165 -567 20 -40 57 -93 88 -125 l54 -55 -111 -1 c-196 -1 -531 -16 -685
-29 -36 -3 -90 -8 -120 -11 -30 -2 -73 -6 -95 -9 -22 -2 -69 -7 -105 -10 -76
-7 -132 -13 -169 -19 -14 -3 -48 -7 -76 -11 -43 -5 -96 -12 -295 -41 -19 -3
-71 -12 -115 -19 -44 -8 -96 -17 -115 -20 -66 -11 -245 -46 -280 -55 -19 -5
-48 -12 -65 -14 -16 -3 -39 -8 -50 -10 -11 -3 -54 -12 -95 -21 -259 -55 -753
-195 -1055 -299 -141 -48 -392 -139 -440 -160 -16 -7 -46 -19 -65 -26 -65 -24
-374 -157 -510 -220 -357 -163 -803 -404 -1140 -613 -301 -188 -621 -409 -890
-616 -109 -83 -385 -306 -416 -336 -6 -5 -37 -32 -69 -60 -326 -279 -743 -693
-1028 -1020 -79 -92 -124 -144 -162 -190 -22 -27 -45 -53 -50 -59 -28 -29
-193 -241 -320 -411 -815 -1090 -1406 -2331 -1729 -3633 -38 -152 -84 -358
-100 -442 -7 -35 -25 -130 -31 -160 -7 -31 -44 -252 -50 -300 -14 -92 -25
-169 -30 -213 -4 -27 -8 -56 -10 -65 -1 -10 -6 -53 -10 -96 -4 -43 -8 -86 -10
-95 -3 -20 -13 -124 -21 -211 -5 -66 -6 -85 -21 -315 -10 -168 -10 -910 0
-1085 10 -156 15 -227 22 -290 3 -25 7 -76 10 -115 3 -38 7 -79 9 -90 2 -11 7
-54 11 -95 3 -41 8 -87 11 -101 2 -14 6 -43 9 -64 23 -182 65 -435 100 -610
14 -66 26 -131 29 -145 2 -14 11 -55 20 -91 8 -37 17 -78 20 -90 10 -57 91
-367 142 -542 137 -477 337 -1009 539 -1442 70 -150 245 -498 302 -600 28 -49
63 -112 78 -140 169 -306 444 -728 705 -1080 86 -116 334 -432 349 -445 3 -3
31 -34 61 -70 261 -311 647 -709 954 -985 110 -98 198 -175 271 -235 50 -41
92 -77 95 -80 3 -3 77 -62 165 -131 211 -166 453 -342 656 -475 165 -109 194
-128 346 -222 81 -51 393 -229 466 -267 46 -24 51 -28 196 -184 62 -67 116
-119 119 -117 6 7 -39 82 -83 140 -19 25 -35 48 -35 51 0 3 18 -4 40 -15 22
-11 40 -18 40 -15 0 2 -22 16 -49 29 -41 21 -65 47 -157 173 -60 81 -183 246
-274 367 -383 507 -456 627 -819 1355 -224 448 -373 765 -392 831 -18 66 -14
349 6 450 2 13 7 42 10 65 29 209 46 269 102 370 269 482 653 788 1163 927 99
27 134 32 255 34 77 2 172 5 210 8 39 2 99 0 135 -5 36 -5 83 -12 105 -15 60
-8 87 -12 240 -39 77 -13 158 -26 180 -30 45 -6 86 -12 130 -20 17 -3 73 -8
125 -11 52 -3 109 -11 125 -17 94 -34 272 -176 503 -402 96 -93 176 -169 178
-167 9 6 1 20 -33 55 -19 21 -34 39 -32 41 6 6 247 -77 301 -103 81 -39 76 -9
83 -456 10 -694 15 -733 98 -813 67 -64 209 -114 377 -131 78 -8 379 -6 460 3
100 11 168 16 300 23 226 11 188 23 456 -147 276 -176 632 -415 749 -503 44
-33 184 -145 310 -247 381 -309 596 -460 791 -558 128 -64 245 -83 158 -25
-33 22 -125 96 -160 128 -407 378 -604 540 -892 733 -223 149 -379 245 -667
407 -94 54 -370 201 -387 208 -34 12 -18 22 40 23 68 2 317 13 422 19 41 2
134 7 205 10 72 3 168 7 215 10 47 2 144 7 215 10 184 8 273 13 405 19 173 9
333 16 450 21 142 6 314 14 435 20 160 8 321 15 455 20 69 3 166 7 215 10 50
2 153 7 230 10 77 3 181 8 230 10 50 3 160 7 245 11 85 3 187 7 225 9 205 10
449 17 445 12 -4 -4 -122 -95 -230 -177 -56 -42 -892 -687 -930 -717 -85 -68
-444 -344 -635 -490 -132 -101 -247 -189 -255 -196 -8 -6 -58 -46 -110 -87
-114 -90 -237 -192 -432 -361 -142 -122 -285 -229 -371 -278 -23 -13 -84 -39
-135 -57 -110 -39 -167 -79 -216 -153 -31 -46 -46 -91 -32 -91 3 0 28 24 56
54 56 59 124 94 198 102 262 28 605 264 1488 1024 60 52 134 115 164 140 68
57 337 285 370 314 14 12 84 70 155 131 225 189 250 210 255 215 3 3 48 41
100 85 52 44 97 82 100 85 3 3 48 41 100 85 100 85 146 124 164 140 6 6 40 35
76 65 36 30 67 57 70 60 3 3 36 31 73 63 67 56 70 57 130 58 34 0 96 2 137 4
41 1 163 6 270 10 107 3 231 8 275 10 109 4 573 15 835 20 211 3 240 6 350 26
235 44 401 158 453 311 10 28 19 99 22 180 3 73 8 174 10 223 2 50 7 167 11
260 4 94 8 188 9 210 2 22 3 53 4 69 l1 29 23 -21 23 -22 30 31 c16 17 88 76
161 130 136 102 168 136 177 184 10 53 -39 120 -100 139 -17 5 -22 0 -32 -31
-6 -20 -10 -37 -9 -38 89 -42 78 -67 -78 -180 -44 -32 -106 -80 -138 -107
l-57 -50 5 109 c7 162 14 310 21 488 3 88 9 164 13 168 4 4 82 39 172 78 90
38 173 74 184 79 29 14 181 66 245 84 127 36 243 49 385 43 107 -5 305 -30
323 -41 4 -2 23 -7 42 -10 49 -8 233 -60 343 -97 244 -83 269 -98 411 -243
209 -215 335 -465 391 -776 14 -76 14 -352 1 -415 -38 -174 -68 -265 -136
-410 -238 -512 -406 -854 -440 -897 -12 -16 -34 -28 -58 -31 -54 -9 -148 -58
-212 -112 -30 -25 -309 -299 -620 -608 -311 -309 -605 -598 -655 -642 -49 -44
-110 -98 -135 -120 -25 -22 -47 -42 -50 -45 -56 -59 -320 -261 -450 -344 -113
-72 -515 -268 -930 -453 -846 -377 -1897 -802 -2383 -964 -188 -63 -489 -148
-574 -163 -6 -1 -38 -38 -71 -82 -33 -44 -66 -81 -73 -81 -19 0 -129 -13 -154
-18 -19 -4 -85 -11 -180 -21 -22 -2 -50 -6 -62 -8 -13 -3 -23 -1 -23 5 0 5 5
9 11 9 13 0 189 81 189 87 0 6 -142 213 -314 458 -184 263 -372 518 -503 685
-198 252 -318 360 -382 343 -12 -3 -109 -55 -214 -115 -674 -382 -1157 -543
-1602 -533 -77 2 -158 6 -180 9 -22 3 -60 8 -85 12 -73 9 -108 14 -142 18
-111 15 -202 28 -230 31 -18 3 -51 7 -73 10 -22 3 -56 7 -75 10 -19 2 -55 7
-80 10 -25 4 -56 8 -70 10 -14 2 -77 11 -140 20 -63 9 -128 19 -145 21 -16 3
-41 7 -55 9 -167 24 -404 83 -490 124 -45 21 -45 22 -10 17 164 -24 159 -11
-33 83 -171 83 -313 168 -531 315 -386 261 -576 416 -867 706 -271 270 -412
429 -636 717 -95 123 -113 143 -113 124 0 -26 192 -318 343 -521 187 -251 373
-466 617 -710 242 -242 409 -374 642 -507 l87 -50 -107 1 c-128 1 -192 -6
-292 -34 -71 -20 -189 -73 -200 -90 -16 -24 -196 -128 -296 -171 -156 -67
-190 -85 -254 -134 -73 -57 -145 -144 -169 -207 -5 -13 -26 -59 -46 -102 -104
-224 -129 -386 -63 -408 24 -8 265 54 653 168 123 36 259 68 330 78 22 3 41 5
43 6 1 0 2 4 2 10 0 6 -16 8 -37 4 -91 -13 -221 -36 -249 -45 -17 -5 -40 -12
-50 -14 -10 -3 -50 -14 -89 -25 -76 -22 -405 -109 -436 -115 -10 -2 -23 -6
-27 -9 -13 -8 -73 -19 -107 -20 -30 -1 -30 -1 -29 50 2 71 34 164 114 329 91
188 141 244 282 313 57 28 147 70 201 93 54 23 152 76 216 119 173 112 278
141 491 135 74 -1 149 -6 165 -9 112 -24 199 -56 330 -121 146 -73 234 -104
406 -145 88 -20 107 -24 204 -40 33 -5 71 -12 85 -15 14 -3 70 -12 125 -20 55
-8 129 -19 165 -25 36 -5 85 -12 110 -15 25 -4 70 -10 100 -15 30 -5 75 -12
100 -15 25 -3 71 -10 103 -16 33 -6 73 -12 90 -14 18 -2 48 -6 67 -9 19 -3 55
-7 80 -10 25 -3 86 -10 135 -17 85 -11 311 -7 410 6 413 58 843 221 1393 528
l154 86 51 -52 c136 -140 430 -534 726 -976 158 -236 179 -271 164 -279 -22
-12 -205 -59 -257 -67 -21 -3 -41 -7 -45 -9 -3 -2 -35 -7 -71 -11 -36 -3 -72
-8 -80 -10 -8 -2 -44 -7 -80 -10 -179 -17 -238 -25 -345 -47 -101 -20 -211
-56 -276 -89 -20 -10 -90 -27 -155 -39 -151 -27 -142 -25 -151 -34 -12 -11 17
-24 71 -32 l50 -6 -24 -20 c-54 -42 -153 -146 -182 -191 -30 -47 -177 -167
-205 -167 -7 0 -13 -4 -13 -9 0 -18 -288 -138 -375 -156 -11 -2 -45 -9 -75
-14 -30 -6 -66 -13 -80 -16 -125 -25 -448 -26 -600 0 -14 2 -43 6 -65 10 -55
8 -156 24 -180 29 -11 2 -40 7 -65 11 -58 9 -74 13 -136 25 -28 6 -61 13 -75
15 -35 7 -217 48 -434 98 -104 25 -224 50 -265 57 -41 7 -84 15 -95 17 -11 3
-249 7 -530 9 -280 1 -526 5 -545 7 -19 3 -69 8 -110 12 -41 4 -88 9 -105 11
-16 2 -52 6 -80 9 -27 4 -61 8 -75 10 -14 2 -61 9 -105 15 -241 34 -511 101
-615 153 -60 30 -67 37 -97 96 -39 78 -73 114 -178 184 -89 59 -120 102 -104
144 17 46 136 186 151 177 4 -3 8 2 8 10 0 28 -26 17 -76 -31 -79 -77 -112
-120 -123 -159 -18 -66 9 -103 157 -217 67 -51 96 -90 112 -149 20 -72 103
-127 286 -191 97 -34 328 -91 445 -111 19 -3 45 -8 59 -11 14 -3 39 -7 55 -9
32 -5 93 -15 129 -22 11 -2 41 -7 66 -10 25 -3 56 -7 70 -9 60 -9 109 -15 160
-20 30 -3 71 -8 90 -10 99 -12 276 -18 555 -20 368 -2 376 -3 821 -115 327
-83 631 -150 769 -170 44 -7 89 -14 99 -16 99 -19 459 -26 587 -12 309 35 612
157 822 331 27 22 75 75 108 118 71 93 154 168 251 228 l71 43 191 3 c105 2
216 6 246 9 30 4 78 9 105 12 28 3 61 7 75 9 14 2 45 7 70 10 25 3 70 10 101
16 45 7 63 6 93 -6 21 -9 92 -31 158 -50 233 -68 304 -48 498 141 l75 73 140
36 c77 20 161 42 187 50 44 13 50 12 125 -17 161 -63 421 -148 653 -214 97
-27 585 -150 627 -158 15 -2 81 -16 146 -30 65 -14 128 -28 140 -30 82 -17
127 -25 162 -30 23 -4 52 -9 65 -11 45 -9 144 -24 195 -30 28 -3 61 -8 75 -10
14 -3 57 -7 95 -11 39 -3 76 -7 84 -10 16 -5 344 -5 386 1 17 2 55 7 85 10
106 13 120 15 240 40 14 2 39 7 55 11 42 8 454 123 486 135 29 11 92 103 137
201 58 125 203 557 285 847 l24 85 50 -3 c97 -5 170 47 220 156 22 47 84 272
87 313 5 88 -81 161 -266 224 -67 23 -240 63 -349 81 -19 3 -50 9 -69 13 l-35
8 60 39 c50 33 309 235 325 254 3 3 43 40 90 81 207 183 568 544 945 945 110
117 432 439 487 487 33 29 72 59 86 67 l27 14 -25 -29 c-14 -15 -29 -33 -35
-40 -5 -7 -71 -74 -145 -150 -165 -169 -91 -110 115 91 83 81 161 148 175 152
45 10 84 49 135 134 27 47 116 162 200 259 434 505 851 1106 1175 1695 149
270 342 655 405 810 21 50 46 108 56 130 25 56 149 355 149 362 0 2 36 104 79
226 86 240 85 236 165 504 74 245 123 433 181 693 9 41 75 380 80 410 3 19 7
46 10 60 8 42 30 187 40 260 3 25 8 56 10 70 6 36 13 97 20 160 4 30 8 66 10
80 2 14 7 57 10 95 3 39 8 86 10 105 3 19 7 76 10 125 4 50 8 108 11 130 24
253 24 1231 -1 1387 -2 12 -6 69 -10 126 -3 56 -8 112 -10 125 -2 12 -6 54
-10 92 -3 39 -8 84 -10 100 -3 17 -7 55 -10 85 -3 30 -7 64 -9 75 -2 11 -7 47
-11 80 -4 32 -8 66 -10 75 -1 8 -6 37 -9 63 -4 27 -9 59 -12 70 -2 12 -7 42
-10 67 -5 37 -29 169 -70 390 -3 14 -10 45 -15 70 -6 25 -13 56 -15 70 -11 54
-76 323 -110 450 -161 606 -427 1306 -721 1895 -63 126 -213 408 -248 467 -5
9 -27 46 -47 82 -213 374 -618 964 -891 1296 -94 115 -208 252 -233 280 -327
369 -648 696 -939 955 -43 39 -83 75 -89 81 -33 31 -387 323 -481 396 -451
348 -914 649 -1470 953 -309 169 -816 401 -1210 553 -267 104 -794 277 -933
307 -9 2 -66 18 -127 35 -149 42 -272 71 -618 145 -10 2 -26 6 -35 9 -16 4
-68 13 -117 20 -11 2 -33 6 -50 9 -16 4 -50 9 -75 12 -25 4 -64 11 -87 16 -24
5 -73 13 -110 19 -38 5 -84 12 -103 14 -158 23 -260 37 -350 46 -58 6 -121 13
-140 15 -50 6 -156 15 -220 19 -179 13 -291 19 -332 20 -46 1 -47 1 -30 21 9
11 21 25 27 30 55 55 93 182 93 307 0 230 -122 403 -310 442 -72 15 -66 -3
-54 171 4 50 9 131 12 180 2 50 7 115 9 145 23 294 23 1267 0 1695 -2 33 -7
125 -12 205 -10 183 -10 850 0 990 16 225 18 274 18 550 1 295 -9 554 -26 740
-13 141 -18 216 -17 223 4 16 -17 6 -22 -10z m64 -5767 c203 -6 323 -12 425
-20 163 -14 203 -17 245 -21 25 -3 70 -7 100 -10 30 -3 72 -7 93 -10 20 -3 54
-7 75 -10 20 -2 55 -7 77 -10 64 -8 308 -44 335 -49 14 -2 48 -8 75 -12 28 -4
55 -8 60 -10 6 -1 62 -11 125 -23 63 -12 135 -26 160 -31 1293 -271 2464 -743
3545 -1428 500 -317 890 -613 1394 -1058 186 -164 571 -549 766 -765 96 -107
113 -127 202 -230 673 -785 1233 -1694 1635 -2654 237 -567 431 -1176 554
-1740 14 -66 27 -127 29 -135 21 -89 94 -510 109 -625 26 -195 36 -279 41
-335 3 -36 8 -76 10 -90 4 -24 8 -71 20 -225 3 -38 8 -92 10 -120 24 -293 24
-1174 0 -1335 -2 -14 -6 -68 -10 -120 -9 -142 -20 -255 -30 -320 -2 -14 -7
-50 -10 -80 -3 -30 -8 -66 -10 -80 -2 -14 -6 -47 -10 -75 -15 -122 -49 -342
-65 -415 -9 -41 -36 -194 -47 -265 -2 -16 -11 -55 -18 -85 -8 -30 -37 -149
-64 -265 -260 -1109 -742 -2218 -1389 -3200 -164 -249 -386 -558 -528 -735
-130 -161 -219 -268 -221 -266 -2 2 15 43 38 92 112 241 107 230 204 439 94
202 146 348 169 480 3 17 8 41 11 55 31 154 23 385 -20 565 -77 328 -257 603
-546 838 -104 84 -567 221 -859 255 -36 4 -141 7 -235 6 -193 -1 -263 -15
-483 -98 -120 -45 -233 -95 -404 -176 -32 -15 -38 -16 -42 -3 -4 8 -4 18 -2
21 2 4 7 93 11 197 3 105 8 222 10 260 4 70 11 234 20 480 3 72 7 173 10 225
2 52 7 163 10 245 3 83 8 197 10 255 2 58 7 170 10 250 3 80 8 192 10 250 2
58 7 188 11 290 3 102 8 217 9 255 2 39 4 141 5 228 1 152 0 160 -24 201 -30
51 -76 88 -152 122 -57 25 -179 56 -269 69 -27 3 -66 9 -85 12 -19 4 -309 7
-644 7 l-610 1 -27 90 c-15 50 -39 128 -54 175 -26 84 -72 231 -80 260 -3 8
-18 58 -34 110 -308 996 -302 974 -297 1025 10 120 -31 190 -149 250 -32 17
-76 42 -97 58 l-38 27 33 62 c30 57 32 69 31 152 -2 153 -44 232 -213 394
-117 114 -185 151 -306 166 -140 19 -198 29 -285 51 -143 37 -337 69 -535 90
-33 3 -71 8 -85 10 -14 2 -61 7 -105 11 -44 3 -93 8 -110 10 -151 18 -370 23
-455 10 -30 -4 -113 -16 -185 -27 -71 -10 -149 -21 -173 -24 l-42 -5 62 79
c125 158 168 252 164 361 -3 77 -28 132 -82 180 -67 58 -116 74 -234 76 -160
3 -295 -31 -514 -130 -38 -17 -72 -30 -74 -29 -15 5 -30 108 -29 188 l2 90 80
115 c119 170 200 299 282 449 40 73 73 136 73 140 0 3 6 18 14 32 7 15 33 75
56 135 95 242 133 421 134 631 1 79 4 143 9 143 4 0 7 -10 7 -23 0 -46 62
-244 104 -333 54 -114 109 -196 178 -263 49 -48 147 -121 163 -121 4 0 -29 35
-72 78 -110 107 -195 257 -238 418 -24 91 -54 240 -61 302 -3 32 -7 60 -9 63
-2 3 -7 48 -10 100 -3 52 -8 112 -10 134 -5 49 -5 477 -1 525 23 231 26 327
10 361 -127 264 -155 309 -237 367 -43 31 -56 35 -150 43 -143 12 -251 45
-537 166 -85 36 -224 98 -309 139 -85 41 -157 74 -160 74 -19 -1 60 -45 269
-149 309 -153 503 -237 595 -257 79 -17 123 -24 157 -24 107 0 194 -99 285
-325 37 -91 39 -103 27 -185 -8 -56 -10 -74 -19 -180 -4 -47 -9 -96 -10 -110
-2 -14 -3 -45 -4 -69 -2 -81 -10 -37 -15 84 -14 297 -26 488 -32 494 -4 5 -3
-82 11 -511 l7 -197 -51 20 c-150 56 -476 120 -586 113 -89 -5 -225 -51 -199
-66 5 -3 68 -9 139 -12 72 -4 164 -9 205 -11 271 -14 489 -45 491 -68 4 -35
22 -589 22 -662 0 -93 -10 -180 -37 -320 -2 -11 -11 -47 -21 -80 -99 -357
-282 -698 -607 -1130 -214 -285 -233 -305 -328 -353 -47 -23 -121 -51 -165
-63 -206 -52 -562 -2 -780 109 -141 72 -438 326 -587 503 -55 66 -58 73 -118
264 -11 37 -147 570 -154 605 -2 14 -11 57 -20 95 -22 103 -25 137 -32 395 -4
129 -8 253 -9 275 -2 22 -3 53 -4 69 0 16 -4 27 -7 24 -3 -4 -7 -80 -9 -170
-2 -89 -6 -235 -9 -323 -3 -88 -1 -185 4 -215 5 -30 12 -70 15 -87 26 -167
130 -628 179 -798 32 -111 56 -151 150 -251 76 -82 91 -107 101 -167 3 -18 10
-48 15 -68 14 -52 29 -132 37 -203 9 -71 8 -244 -1 -253 -6 -7 -71 27 -183 94
-75 45 -116 57 -73 22 14 -11 72 -52 130 -90 208 -139 520 -271 765 -325 53
-12 186 -35 240 -41 78 -10 393 -10 470 -1 265 32 508 122 740 273 99 64 207
153 200 165 -3 4 -32 -5 -64 -20 -87 -42 -281 -123 -286 -119 -6 7 -82 173
-89 197 -7 21 0 26 76 61 88 41 239 93 323 112 69 15 192 15 237 0 39 -13 97
-70 99 -99 7 -86 -31 -168 -148 -318 -95 -121 -125 -177 -116 -215 14 -58 58
-76 150 -60 32 5 76 12 98 15 71 9 339 47 365 52 29 6 176 6 205 0 12 -2 68
-7 125 -11 57 -4 112 -9 122 -10 10 -2 53 -6 96 -10 191 -14 475 -59 667 -105
66 -16 147 -31 180 -35 175 -18 232 -39 327 -125 189 -171 240 -302 170 -435
-37 -70 -41 -125 -13 -171 24 -39 63 -69 161 -123 99 -55 103 -61 96 -141 -6
-59 -1 -81 48 -240 49 -159 129 -417 222 -720 19 -63 39 -126 44 -140 8 -25
55 -176 126 -405 54 -176 53 -165 8 -166 -50 -1 -520 -5 -1534 -13 -448 -4
-1040 -9 -1315 -11 -275 -3 -772 -7 -1105 -10 -1352 -12 -2100 -22 -2175 -30
-80 -9 -195 -44 -257 -77 -181 -96 -317 -318 -333 -543 -2 -27 -7 -275 -10
-550 -4 -275 -8 -594 -10 -710 -1 -115 -4 -362 -5 -547 l-2 -337 -52 57 c-144
161 -390 388 -496 459 -141 94 -335 169 -515 198 -64 10 -335 14 -395 5 -30
-4 -74 -11 -97 -14 -66 -11 -240 -61 -320 -94 -87 -35 -263 -132 -263 -144 0
-12 0 -12 92 31 102 47 259 99 358 118 181 35 394 42 540 16 171 -29 345 -101
485 -198 39 -27 142 -106 230 -175 88 -69 216 -166 285 -215 69 -48 130 -94
135 -101 7 -8 10 -128 8 -351 -1 -186 -3 -526 -3 -756 l0 -417 -52 26 c-49 25
-359 134 -381 134 -5 0 -66 56 -136 124 -284 279 -373 339 -526 350 -105 8
-102 8 -445 76 -162 33 -320 62 -350 66 -30 4 -62 8 -70 10 -8 1 -24 3 -35 3
-11 1 -31 17 -45 37 -31 47 -120 137 -190 194 -105 86 -192 189 -254 300 -36
65 -41 71 -44 48 -4 -35 41 -168 83 -242 64 -114 179 -256 242 -300 l60 -42
-111 1 c-61 0 -134 -3 -162 -7 -182 -27 -498 -147 -679 -258 -230 -141 -450
-358 -617 -610 -68 -102 -135 -226 -142 -260 -2 -14 -13 -65 -24 -115 -12 -49
-24 -110 -27 -135 -4 -24 -8 -47 -10 -50 -1 -3 -6 -36 -10 -73 -3 -37 -9 -78
-11 -90 -3 -12 -7 -85 -9 -162 -6 -209 0 -231 182 -640 70 -155 310 -640 378
-760 160 -285 277 -472 401 -637 62 -83 167 -211 194 -238 3 -3 50 -57 105
-120 55 -63 112 -128 127 -145 14 -16 35 -39 45 -51 10 -12 43 -49 73 -84 87
-100 90 -103 90 -106 0 -1 -78 45 -172 103 -95 58 -182 111 -193 117 -88 49
-519 347 -710 490 -127 95 -337 256 -345 266 -3 3 -30 25 -60 50 -71 58 -266
225 -305 261 -16 15 -41 38 -55 49 -134 115 -530 503 -700 686 -139 149 -422
477 -513 594 -7 8 -44 56 -83 105 -791 1011 -1420 2239 -1753 3430 -17 61 -36
124 -41 142 -6 18 -13 40 -15 50 -2 10 -17 73 -34 141 -29 113 -97 413 -107
472 -3 14 -11 59 -19 100 -18 95 -24 126 -30 170 -3 19 -8 46 -11 60 -3 13 -7
40 -10 60 -2 19 -6 46 -9 60 -6 33 -12 74 -20 130 -5 45 -13 103 -20 150 -2
14 -7 52 -10 85 -4 33 -8 71 -10 85 -2 14 -7 61 -10 105 -3 44 -8 91 -10 105
-4 23 -7 64 -21 270 -22 339 -22 953 1 1280 15 215 19 257 30 365 2 22 7 67
10 100 3 33 10 92 15 130 5 39 12 93 16 120 3 28 7 61 9 74 2 13 7 45 11 70 3
25 17 111 30 191 33 197 33 196 49 275 8 39 16 81 19 95 2 14 10 48 16 75 7
28 14 64 17 80 19 116 172 681 240 885 13 41 26 82 28 90 7 27 112 323 160
449 334 876 801 1723 1361 2467 192 256 339 436 554 678 194 220 607 630 829
826 35 30 68 60 74 65 7 6 44 37 82 70 39 32 72 61 75 64 3 4 25 22 50 41 25
19 54 43 65 53 11 10 45 37 75 60 30 23 61 48 68 54 12 11 104 81 319 240 129
95 494 338 668 443 444 269 910 508 1355 695 102 42 194 81 205 86 214 91 790
288 1035 353 30 8 123 33 205 55 128 35 350 88 435 105 14 3 79 16 145 30 66
14 134 27 150 30 145 27 258 46 300 51 28 4 57 8 65 10 8 2 38 7 65 11 28 3
58 8 67 9 9 2 48 7 85 10 37 4 70 9 73 10 3 2 42 7 85 10 44 4 82 8 85 10 3 2
48 6 100 10 52 4 103 9 112 11 10 1 64 6 120 9 57 4 126 9 153 11 28 1 149 6
270 10 121 4 221 7 222 8 3 3 280 -2 493 -8z m-1590 -7583 c110 -82 239 -140
393 -177 136 -33 168 -37 332 -41 186 -5 298 16 428 81 96 49 143 92 243 224
54 72 99 130 100 130 2 0 2 -26 2 -57 -1 -114 49 -285 135 -461 l35 -73 -23
-9 c-104 -39 -377 -116 -475 -134 -23 -4 -98 -18 -110 -21 -5 -1 -85 -13 -145
-20 -44 -6 -303 -6 -355 0 -254 29 -466 83 -688 175 l-101 42 3 107 c3 112
-17 277 -51 412 l-19 76 121 -107 c66 -58 145 -124 175 -147z m6760 -3547
c199 -38 316 -86 358 -147 23 -34 24 -35 17 -249 -3 -118 -8 -260 -10 -315 -2
-55 -7 -176 -10 -270 -3 -93 -8 -213 -10 -265 -2 -52 -7 -167 -10 -255 -3 -88
-8 -200 -10 -250 -2 -49 -7 -155 -10 -235 -3 -80 -8 -192 -10 -250 -3 -58 -7
-168 -10 -245 -3 -77 -8 -176 -10 -220 -2 -44 -7 -165 -11 -270 -4 -104 -8
-208 -10 -230 -1 -22 -3 -59 -3 -83 l-1 -43 -92 -45 c-220 -107 -410 -213
-404 -223 3 -5 112 45 242 110 130 66 241 119 246 119 5 0 6 -30 4 -67 -3 -38
-8 -140 -11 -228 -3 -88 -8 -198 -10 -245 -3 -47 -7 -148 -10 -225 -8 -190
-14 -341 -19 -460 -3 -55 -8 -172 -11 -260 -3 -88 -11 -178 -16 -199 -39 -148
-210 -250 -479 -286 -47 -7 -204 -13 -350 -15 -252 -3 -582 -11 -810 -20 -145
-6 -443 -17 -514 -19 l-58 -2 29 26 c15 14 53 46 82 71 95 81 50 70 -64 -16
l-110 -84 -170 -6 c-93 -4 -199 -8 -235 -10 -36 -2 -144 -6 -240 -10 -96 -3
-209 -8 -250 -10 -41 -2 -142 -7 -225 -10 -82 -3 -186 -8 -230 -10 -44 -2
-147 -7 -230 -10 -82 -4 -184 -8 -225 -10 -41 -2 -136 -6 -210 -9 -74 -4 -175
-9 -225 -11 -49 -3 -144 -7 -210 -10 -136 -5 -314 -13 -455 -20 -52 -3 -147
-7 -210 -10 -63 -3 -158 -7 -210 -10 -89 -4 -184 -9 -440 -20 -58 -3 -145 -7
-195 -10 -49 -3 -148 -7 -220 -10 -71 -3 -161 -7 -200 -10 -38 -2 -135 -7
-215 -10 l-145 -7 -167 85 c-167 85 -234 102 -118 30 34 -21 91 -57 128 -80
l67 -42 -60 -2 c-97 -1 -273 -13 -370 -25 -66 -8 -346 -8 -410 0 -203 25 -316
74 -357 157 -21 42 -26 102 -35 434 -20 708 7 4377 32 4510 25 130 82 242 165
326 128 130 244 165 556 169 109 1 291 4 404 5 644 9 2811 29 4350 40 426 3
775 7 776 8 7 7 1837 0 1874 -7z m394 -8057 c189 -48 327 -106 394 -164 39
-34 43 -42 39 -74 -6 -58 -76 -272 -103 -318 -43 -74 -126 -102 -213 -72 -18
6 -34 9 -37 6 -3 -2 -45 -123 -93 -268 -49 -145 -108 -313 -131 -374 -24 -60
-53 -138 -66 -173 -31 -85 -109 -241 -137 -274 -19 -23 -51 -34 -227 -78 -247
-63 -256 -64 -470 -96 -119 -17 -429 -7 -610 19 -49 8 -229 37 -265 43 -16 3
-52 9 -80 14 -113 20 -235 42 -315 56 -47 9 -96 18 -110 20 -14 3 -95 18 -180
34 -85 16 -166 31 -180 34 -29 5 -195 36 -225 42 -11 2 -33 7 -50 10 -16 3
-131 25 -255 50 -124 25 -234 47 -245 49 -115 22 -235 51 -235 57 0 5 5 8 10
8 6 0 10 5 10 10 0 6 -19 8 -47 4 -27 -3 -70 0 -96 6 -56 12 -81 4 -46 -16
l24 -13 -22 -1 c-13 0 -25 -1 -28 -1 -23 -6 -109 -21 -149 -25 l-48 -6 18 24
c14 19 37 28 104 42 348 71 819 212 1305 391 459 169 1302 511 1655 673 236
108 328 151 470 220 91 44 203 102 250 128 47 26 95 53 108 59 24 13 80 4 276
-46z m-4468 -1674 c-90 -83 -130 -99 -229 -91 -45 4 -100 10 -122 15 -22 5
-55 12 -72 16 -35 8 -45 24 -15 26 9 0 26 2 37 5 11 2 38 6 60 9 22 4 112 21
200 40 88 18 169 33 180 34 15 0 5 -14 -39 -54z"/>
<path d="M14052 20958 c-154 -13 -308 -56 -462 -130 -243 -117 -423 -286 -719
-678 -188 -248 -317 -442 -459 -690 -58 -101 -242 -463 -242 -475 0 -4 -11
-30 -24 -58 -32 -72 -39 -97 -27 -97 6 0 11 4 11 9 0 21 574 933 748 1191 375
552 630 770 1026 875 109 29 181 38 303 39 46 1 83 4 83 9 0 4 -10 7 -22 8
-13 0 -48 1 -78 2 -30 1 -92 -1 -138 -5z"/>
<path d="M14300 20949 c0 -5 9 -9 20 -9 11 0 20 2 20 4 0 2 -9 6 -20 9 -11 3
-20 1 -20 -4z"/>
<path d="M14768 20955 c-2 -2 -34 -6 -73 -9 -86 -7 -131 -15 -163 -27 -43 -17
-19 -17 53 -2 98 21 290 21 395 -1 226 -46 354 -120 555 -321 168 -168 274
-298 477 -589 271 -387 463 -738 523 -954 21 -74 231 -743 280 -887 139 -415
277 -794 327 -895 95 -193 305 -330 510 -330 84 0 97 14 16 18 -172 7 -380
145 -453 298 -24 50 -130 362 -240 704 -78 242 -296 901 -362 1095 -73 214
-135 336 -358 702 -70 114 -253 364 -394 538 -399 492 -627 638 -1028 659 -34
2 -63 2 -65 1z"/>
<path d="M14590 20757 c0 -4 10 -36 21 -70 45 -130 31 -318 -33 -457 -66 -141
-76 -167 -87 -221 -20 -95 -15 -175 14 -245 16 -40 77 -134 86 -134 7 0 -7 86
-17 102 -13 21 -12 188 2 255 8 37 33 121 55 185 43 126 51 167 51 269 0 81
-14 156 -41 230 -20 52 -50 104 -51 86z"/>
<path d="M13495 19682 c-367 -211 -927 -570 -1225 -786 -266 -192 -483 -385
-565 -501 -66 -93 -130 -222 -208 -420 -31 -79 -113 -225 -152 -272 -79 -96
-135 -136 -244 -173 -79 -26 -137 -33 -273 -34 -60 0 -108 -3 -108 -7 0 -14
133 -28 255 -25 146 4 219 23 310 81 132 85 221 221 364 557 84 200 127 266
253 396 226 232 824 675 1433 1063 172 110 205 132 205 135 0 8 -15 3 -45 -14z"/>
<path d="M14555 19262 c-115 -185 -262 -339 -379 -396 -94 -47 -117 -74 -231
-276 -155 -275 -223 -371 -352 -496 -236 -230 -558 -355 -956 -371 -150 -6
-185 -15 -107 -27 19 -3 53 -8 75 -12 45 -8 280 -8 335 0 103 14 133 21 220
48 142 45 275 116 390 207 13 11 28 17 32 15 10 -6 172 -6 218 1 19 2 67 9
105 15 39 5 93 12 120 14 28 2 72 7 100 11 38 6 45 10 29 15 -53 20 -417 32
-484 17 -19 -5 -30 -5 -24 0 19 15 120 147 171 223 54 81 117 193 203 363 68
134 100 173 185 222 37 22 95 67 130 102 62 61 166 198 206 272 11 20 29 51
39 69 31 51 8 37 -25 -16z"/>
<path d="M16669 18076 c21 -25 80 -153 105 -230 71 -211 78 -370 24 -519 -12
-33 -51 -101 -86 -150 -125 -174 -190 -301 -212 -413 -17 -85 -4 -189 28 -232
16 -21 17 -18 17 76 0 96 1 98 51 202 28 58 88 166 134 240 46 74 96 162 111
195 73 161 64 374 -26 591 -41 99 -131 254 -147 254 -7 0 -7 -5 1 -14z"/>
<path d="M15535 17726 c-30 -13 -102 -31 -160 -41 -67 -11 -91 -18 -122 -37
-18 -11 -33 -26 -33 -33 0 -16 51 -29 99 -26 46 3 166 63 221 111 47 41 46 48
-5 26z"/>
<path d="M13580 17695 c0 -17 69 -64 122 -82 54 -20 284 -26 381 -11 37 6 67
12 65 13 -4 4 -72 15 -133 21 -27 3 -102 17 -165 31 -185 41 -270 50 -270 28z"/>
<path d="M11985 17597 c-42 -42 -191 -96 -305 -111 -25 -4 -56 -8 -70 -10 -14
-2 -47 -7 -75 -11 -63 -8 -212 -52 -220 -65 -10 -16 46 -25 155 -24 88 2 121
7 205 33 140 44 252 101 303 154 24 25 40 47 35 50 -4 2 -17 -5 -28 -16z"/>
<path d="M12705 17542 c-85 -96 -155 -158 -245 -217 -39 -25 -72 -45 -74 -45
-3 0 -39 -20 -80 -45 -42 -25 -81 -45 -86 -45 -18 0 -10 -20 8 -21 9 0 26 -2
37 -4 34 -7 137 24 194 58 65 39 126 99 196 192 57 76 129 194 123 201 -3 2
-35 -31 -73 -74z"/>
<path d="M12769 17224 c-3 -99 6 -303 15 -349 2 -11 7 -47 11 -80 4 -33 9 -69
10 -81 5 -40 46 -176 61 -207 26 -50 81 -113 120 -137 19 -12 37 -20 40 -18 2
3 -9 29 -26 59 -32 58 -105 272 -139 404 -17 68 -30 135 -58 284 -2 13 -8 55
-13 93 -10 85 -20 99 -21 32z"/>
<path d="M14883 16959 c-6 -165 -48 -273 -129 -329 -41 -27 -42 -37 -9 -46 63
-16 133 25 163 95 21 51 24 191 5 274 -8 37 -18 67 -22 67 -3 0 -7 -28 -8 -61z"/>
<path d="M13099 15528 c-20 -5 -50 -23 -65 -39 -25 -26 -29 -39 -31 -91 -2
-78 19 -133 97 -252 32 -50 57 -92 55 -94 -2 -2 -77 -3 -167 -2 -339 4 -426 4
-543 -4 -66 -5 -138 -10 -160 -11 -22 -2 -71 -6 -110 -9 -38 -4 -93 -9 -121
-11 -28 -2 -71 -7 -95 -10 -24 -3 -64 -7 -89 -10 -40 -5 -113 -16 -205 -31
-16 -3 -37 -7 -45 -9 -8 -2 -31 -7 -50 -10 -19 -3 -71 -14 -115 -25 -84 -19
-127 -27 -210 -35 -76 -7 -153 -25 -204 -47 -45 -19 -150 -105 -224 -183 -150
-157 -189 -338 -105 -481 12 -20 17 -41 13 -53 -5 -17 -94 -81 -112 -81 -23 0
-125 -81 -143 -112 -23 -41 -28 -125 -12 -208 12 -64 3 -348 -13 -410 -2 -8
-7 -40 -10 -70 -4 -30 -8 -57 -10 -60 -1 -3 -6 -32 -9 -65 -4 -33 -9 -67 -11
-75 -2 -8 -7 -31 -10 -50 -3 -19 -15 -80 -25 -135 -11 -55 -21 -111 -24 -125
-3 -14 -19 -92 -36 -175 -17 -82 -33 -160 -36 -172 -2 -12 -25 -114 -50 -225
-25 -112 -49 -223 -54 -248 -11 -51 -12 -59 -35 -155 -9 -38 -25 -108 -35
-155 -26 -125 -89 -406 -105 -475 -26 -109 -167 -778 -181 -855 -3 -14 -11
-59 -19 -100 -20 -100 -23 -116 -35 -180 -10 -54 -15 -79 -25 -130 -2 -14 -7
-43 -10 -65 -3 -23 -8 -52 -10 -65 -3 -14 -10 -56 -15 -95 -6 -38 -13 -86 -15
-105 -11 -74 -16 -265 -7 -250 5 8 12 35 15 60 7 58 37 232 42 240 2 3 6 23 9
45 4 22 11 58 17 80 6 22 13 51 16 65 2 14 24 104 49 200 184 714 444 1770
499 2025 2 11 15 73 29 138 14 65 28 128 30 140 2 12 13 67 24 122 27 129 58
298 67 355 2 14 10 66 19 115 14 86 20 124 31 200 10 69 14 101 20 160 4 33 9
71 12 85 10 51 12 377 2 425 -16 81 -14 133 7 156 9 11 57 42 106 70 152 87
179 148 118 266 -36 71 -42 112 -24 181 19 71 66 142 157 233 115 115 177 150
297 164 8 1 44 5 80 9 36 4 115 21 175 36 97 26 291 65 364 75 55 7 178 24
221 30 14 2 57 7 95 10 39 2 81 7 95 10 14 2 61 7 105 10 44 2 102 7 129 11
68 8 224 12 468 14 114 1 216 4 227 7 32 8 26 32 -32 115 -133 190 -154 324
-59 367 45 21 142 21 242 1 95 -19 126 -19 75 0 -82 31 -239 46 -306 28z"/>
<path d="M11708 11628 c-3 -7 -4 -31 -3 -53 1 -22 4 -76 5 -119 2 -44 7 -98
11 -120 4 -23 10 -63 13 -91 11 -85 57 -256 91 -336 58 -137 129 -226 226
-282 49 -28 118 -52 126 -44 2 3 -18 34 -45 70 -63 83 -188 291 -240 398 -53
112 -116 303 -136 409 -2 14 -10 57 -17 95 -13 72 -23 96 -31 73z"/>
<path d="M19104 11295 c-88 -16 -133 -30 -204 -65 -45 -22 -70 -28 -135 -29
-86 -2 -118 -7 -151 -23 -28 -13 -22 -38 22 -99 l34 -47 -42 -52 -41 -52 -71
6 c-39 3 -80 8 -91 10 -11 2 -51 7 -90 10 -38 4 -81 9 -95 11 -28 4 -84 11
-180 20 -57 6 -68 4 -87 -15 -26 -23 -30 -66 -9 -93 7 -9 131 -66 275 -125
262 -108 263 -108 280 -148 16 -36 102 -124 121 -124 4 0 13 -14 20 -30 12
-28 10 -69 -5 -140 -32 -150 -31 -264 2 -308 29 -38 103 -63 190 -63 109 0
141 22 212 151 42 75 85 125 101 115 8 -5 2 -37 -24 -119 -20 -61 -20 -107 -2
-151 l15 -34 -47 -35 c-123 -90 -178 -185 -188 -321 -3 -38 -10 -83 -17 -100
-19 -49 -15 -183 7 -228 15 -31 23 -37 44 -35 19 2 32 17 55 58 62 117 131
193 238 265 90 61 189 98 382 145 91 21 186 49 211 61 60 28 122 96 136 151
15 55 7 134 -18 185 -26 51 -30 205 -6 275 31 96 21 214 -28 316 -26 55 -30
77 -32 152 -1 79 -5 94 -39 164 -80 160 -263 297 -451 336 -81 17 -212 19
-292 5z m294 -76 c168 -43 327 -166 392 -304 42 -91 44 -157 7 -238 -23 -51
-24 -58 -10 -72 14 -14 18 -14 39 0 13 8 25 15 28 15 2 0 13 -21 23 -47 21
-56 23 -177 4 -238 -53 -163 -154 -260 -291 -280 -24 -4 -48 -9 -52 -11 -15
-9 -8 16 17 64 13 26 32 74 41 107 19 72 26 247 13 330 -12 74 -65 186 -115
243 -66 76 -210 164 -307 187 -19 5 -32 19 -46 50 -24 54 -86 117 -140 141
-49 22 -44 27 61 53 97 25 239 25 336 0z m-460 -99 c64 -20 129 -82 145 -138
11 -37 20 -48 43 -55 183 -56 308 -144 371 -264 93 -175 64 -470 -59 -615 -31
-37 -218 -113 -235 -95 -21 22 -21 61 3 132 15 44 24 94 24 136 0 51 5 72 20
92 26 33 57 106 64 150 5 34 -11 67 -33 67 -15 0 -31 -25 -31 -49 0 -59 -92
-198 -154 -230 -23 -13 -106 -128 -106 -148 0 -5 -9 -19 -20 -33 l-20 -25 6
41 c5 33 3 42 -11 48 -23 9 -51 -17 -59 -54 -9 -46 -35 -80 -61 -80 -29 0
-110 34 -120 50 -13 22 -8 133 10 220 26 122 26 148 4 213 -20 58 -20 58 1 87
11 15 44 47 73 71 77 62 125 118 144 167 17 45 21 46 94 26 26 -7 51 23 39 47
-6 10 -14 19 -18 20 -50 6 -81 16 -157 54 -66 32 -107 61 -153 106 -38 38 -58
65 -51 70 19 11 202 3 247 -11z m-158 -180 c32 -22 63 -40 69 -40 5 0 17 -10
25 -21 13 -20 13 -25 -4 -58 -25 -46 -43 -66 -104 -116 -73 -58 -91 -76 -113
-112 l-20 -33 -22 24 c-49 52 -59 130 -25 202 30 64 117 194 130 194 3 0 32
-18 64 -40z m-695 -24 c65 -7 97 -10 190 -21 33 -4 74 -9 91 -10 74 -7 150
-17 165 -21 15 -4 15 -8 -2 -41 -10 -20 -22 -52 -25 -70 -3 -18 -7 -33 -8 -33
-3 0 -104 41 -206 82 -232 96 -266 111 -275 120 -7 7 -7 9 0 6 6 -3 37 -8 70
-12z m1776 -822 c-26 -103 -99 -164 -251 -212 -36 -11 -112 -35 -170 -53 -200
-61 -338 -131 -423 -214 -30 -29 -35 -31 -32 -14 9 43 48 110 91 153 119 121
307 203 549 240 64 10 139 50 191 102 27 27 51 48 53 47 2 -1 -2 -23 -8 -49z
m53 -150 c8 -83 -53 -161 -149 -190 -33 -10 -164 -44 -185 -47 -256 -47 -475
-180 -591 -360 -27 -41 -39 -54 -41 -41 -11 141 90 277 275 369 48 25 147 63
220 85 318 99 372 124 425 200 31 44 41 40 46 -16z"/>
<path d="M18917 10522 c-13 -3 -17 -11 -15 -30 4 -35 43 -43 53 -11 8 25 -12
48 -38 41z"/>
<path d="M15121 10807 c-123 -29 -123 -29 -116 -56 4 -14 8 -33 10 -41 13 -54
88 -355 89 -357 5 -6 214 48 245 62 55 26 98 64 117 103 52 110 6 245 -100
296 -56 27 -114 25 -245 -7z m200 -78 c28 -15 59 -74 61 -117 1 -45 -18 -83
-57 -108 -24 -16 -134 -48 -141 -42 -2 3 -6 22 -10 44 -3 21 -10 47 -15 57 -5
9 -8 17 -6 17 2 0 -4 30 -14 68 l-17 67 52 16 c52 16 115 15 147 -2z"/>
<path d="M14699 10711 c-141 -29 -219 -163 -177 -303 25 -84 105 -140 207
-144 103 -4 194 46 238 130 37 72 19 191 -40 254 -49 53 -148 80 -228 63z
m118 -104 c37 -19 66 -76 65 -129 -2 -100 -119 -161 -203 -105 -47 31 -73 86
-64 137 16 98 112 143 202 97z"/>
<path d="M14156 10576 c-125 -39 -192 -188 -138 -307 38 -85 97 -125 189 -132
155 -13 280 102 268 246 -14 156 -157 243 -319 193z m145 -91 c82 -43 95 -183
21 -231 -65 -43 -127 -38 -177 12 -71 70 -49 187 40 224 32 14 84 11 116 -5z"/>
<path d="M13698 10462 c-26 -8 -66 -31 -89 -50 -158 -135 -62 -393 145 -393
62 0 149 31 196 69 l34 29 -18 81 c-11 44 -22 85 -25 91 -8 12 -91 -9 -91 -24
0 -5 7 -34 14 -63 14 -52 14 -53 -10 -69 -40 -26 -113 -28 -152 -3 -36 22 -70
86 -66 122 1 13 3 30 3 39 2 27 58 77 100 89 41 11 86 6 109 -13 7 -5 14 -8
15 -6 23 30 47 69 47 77 0 32 -140 48 -212 24z"/>
<path d="M15433 10343 c-38 -8 -63 -20 -63 -28 0 -13 -80 -277 -86 -284 -2 -2
-54 45 -114 105 -61 60 -112 110 -113 111 -4 3 -128 -27 -139 -33 -6 -4 64
-81 155 -173 154 -154 167 -170 177 -216 6 -27 18 -75 26 -106 l16 -55 69 15
c43 9 69 19 69 28 0 7 -11 56 -25 108 l-24 95 63 208 c35 114 67 215 71 225 9
20 2 21 -82 0z"/>
<path d="M14613 10141 c-28 -9 -54 -18 -57 -21 -3 -3 -16 -71 -30 -150 -14
-80 -27 -154 -29 -165 -3 -11 -8 -40 -12 -65 -4 -25 -9 -54 -11 -65 -2 -11 -7
-40 -10 -65 -3 -25 -8 -47 -9 -50 -2 -3 -6 -25 -10 -50 -4 -25 -9 -48 -11 -52
-7 -11 10 -10 41 2 14 5 40 12 58 16 31 5 51 17 53 32 0 4 4 32 8 63 9 65 -12
53 189 103 l97 24 46 -60 c32 -40 51 -57 61 -53 9 3 36 10 62 17 25 6 50 14
54 18 9 8 8 10 -237 323 -105 134 -174 215 -185 214 -9 0 -39 -8 -68 -16z
m125 -248 c34 -45 62 -86 62 -91 0 -10 -149 -46 -165 -41 -5 2 -9 7 -8 11 2 4
5 29 8 55 2 26 8 66 11 88 8 39 9 51 12 70 2 12 5 9 80 -92z"/>
<path d="M13990 9983 c-28 -4 -323 -74 -328 -79 -6 -4 140 -588 149 -598 8
-10 188 32 312 72 175 56 261 201 221 373 -32 139 -133 222 -279 232 -27 2
-61 2 -75 0z m104 -137 c64 -27 106 -92 111 -174 7 -91 -51 -159 -163 -191
-128 -37 -117 -40 -137 37 -9 37 -19 76 -21 87 -2 11 -15 63 -28 115 -13 52
-22 97 -21 98 2 2 34 12 72 22 84 22 143 24 187 6z"/>
<path d="M13549 8763 c-1 -4 -3 -21 -4 -38 -8 -66 -5 -296 3 -312 9 -15 10
-14 16 3 3 11 7 93 8 183 2 124 0 165 -9 168 -7 3 -13 1 -14 -4z"/>
<path d="M14376 8416 c-132 -131 -188 -206 -155 -206 12 0 276 265 290 293 8
13 6 17 -10 17 -12 0 -62 -42 -125 -104z"/>
<path d="M12930 8286 c0 -17 108 -66 221 -100 98 -30 109 -31 109 -12 0 8 -37
26 -92 46 -51 18 -119 43 -150 56 -65 27 -88 30 -88 10z"/>
<path d="M13542 8264 c-80 -30 -163 -84 -195 -126 -77 -103 -105 -316 -63
-493 52 -223 253 -320 495 -239 165 55 321 172 377 282 25 49 29 68 29 137 0
68 -4 88 -29 134 -35 68 -101 139 -174 187 -31 21 -76 51 -99 66 -61 42 -174
79 -232 77 -27 -1 -76 -12 -109 -25z m213 -64 c184 -41 357 -182 399 -324 42
-142 -62 -276 -305 -394 -177 -86 -337 -79 -436 18 -62 61 -102 173 -106 298
-8 224 97 388 263 409 19 3 36 6 38 8 6 5 99 -4 147 -15z"/>
<path d="M13567 8063 c-4 -7 -3 -85 1 -120 1 -7 9 -13 18 -13 16 0 16 4 5 133
-1 4 -5 7 -10 7 -6 0 -12 -3 -14 -7z"/>
<path d="M13759 8045 c0 -11 -3 -32 -5 -47 -5 -30 19 -98 34 -98 14 0 22 26
11 37 -5 5 -10 30 -12 56 -4 49 -26 90 -28 52z"/>
<path d="M13932 7763 c-115 -117 -284 -169 -382 -118 -17 9 -47 40 -66 70 -50
80 -77 68 -34 -14 26 -52 70 -95 111 -107 64 -20 185 -2 267 38 84 42 192 158
147 158 -9 0 -28 -12 -43 -27z"/>
<path d="M17958 8209 c-68 -23 -118 -66 -151 -131 l-29 -56 0 -304 c0 -291 0
-307 21 -354 26 -58 71 -108 126 -137 l40 -22 830 0 c830 0 830 0 870 21 80
44 127 107 143 194 4 25 8 169 7 321 l-1 276 -28 57 c-29 59 -86 113 -146 137
-29 11 -174 14 -835 14 -715 1 -804 -1 -847 -16z m1673 -43 c43 -19 92 -64
115 -107 17 -30 19 -64 22 -326 2 -181 -1 -306 -7 -330 -15 -55 -71 -116 -128
-141 -47 -20 -65 -20 -838 -20 -773 0 -791 0 -838 20 -56 24 -98 69 -121 130
-15 38 -17 82 -14 338 3 264 5 299 21 329 25 45 63 80 112 102 38 18 84 19
841 19 674 0 807 -2 835 -14z"/>
<path d="M14332 7749 c6 -19 86 -38 191 -46 63 -4 87 -3 87 6 0 16 -34 27
-105 34 -33 4 -86 9 -119 13 -47 5 -58 4 -54 -7z"/>
<path d="M12958 7715 c-2 -1 -37 -6 -78 -9 -71 -7 -86 -9 -145 -21 -14 -3 -25
-12 -25 -21 0 -14 11 -15 83 -10 45 4 91 9 102 11 11 3 43 7 70 9 113 11 145
19 145 37 0 8 -143 12 -152 4z"/>
<path d="M14115 7440 c-3 -5 0 -19 8 -31 33 -46 300 -318 308 -313 19 11 -35
85 -152 207 -126 132 -153 155 -164 137z"/>
<path d="M13245 7329 c-33 -23 -165 -190 -165 -208 0 -6 4 -11 8 -11 20 0 192
203 192 226 0 18 0 18 -35 -7z"/>
<path d="M13807 7333 c-16 -26 -27 -289 -13 -312 17 -27 27 18 33 152 5 123
-3 188 -20 160z"/>
</g>
</svg>
